<svg width="90" height="92" viewBox="0 0 90 92" fill="none" xmlns="http://www.w3.org/2000/svg">
<path d="M16.5712 30.9092L16.6008 30.9263L16.6059 30.849L17.6251 29.0838L17.7755 28.8917L17.7631 28.8448L17.8966 28.6819C19.3244 26.209 21.639 23.5291 24.84 20.6433C26.726 19.0723 28.8189 17.648 31.1186 16.3689C32.5355 15.5648 34.3951 14.7499 36.697 13.9247C39.6717 13.0352 41.8484 12.5639 43.2296 12.5105C46.1174 12.1825 48.9643 12.2703 51.7697 12.7735C55.2203 13.4887 58.0267 14.4709 60.19 15.7199L60.3255 15.7592L60.3083 15.789L60.3551 15.7763L62.2301 16.8588L62.2431 16.9061L62.2905 16.8937C63.7585 17.7413 65.6991 19.2606 68.1129 21.4519C69.735 23.1333 71.0507 24.704 72.0603 26.1641C73.0549 27.6959 74.0088 29.5493 74.9216 31.7265C75.4337 33.0856 75.9357 34.7591 76.4296 36.7459C76.9702 39.7973 77.2487 42.2713 77.2641 44.1687C77.2246 44.9702 77.0608 45.6205 76.773 46.1189C76.0014 47.4553 74.828 47.9745 73.2534 47.677C72.8502 47.551 72.5191 47.4128 72.2616 47.2641C71.1302 46.6109 70.6247 44.9891 70.7445 42.3984C70.8038 41.6083 70.619 40.1857 70.1916 38.1306C69.4866 35.4097 68.7647 33.384 68.025 32.0524C67.2834 30.5873 66.4169 29.2229 65.427 27.9596C63.8178 26.073 62.7046 24.9519 62.0895 24.5968L60.3574 23.1971L60.293 23.2402L60.1487 23.0766L59.8807 22.9219L59.8677 22.8746L59.8208 22.8873L59.7188 22.7887L58.3966 21.9855C52.4828 18.5712 46.07 17.8068 39.1594 19.6946C36.7663 20.4936 35.1273 21.1562 34.2416 21.6818C29.3719 24.2961 25.6299 27.8667 23.0156 32.3947L22.2211 33.7708L22.1472 33.9673L22.1176 33.9502L22.13 33.9971L22.1125 34.0275C20.9496 36.0417 20.0107 38.7446 19.2972 42.1355C18.9973 43.9841 18.8705 45.9451 18.917 48.0195C18.9281 49.3294 19.2364 51.3156 19.8419 53.9792L20.3432 55.5853C22.3708 61.8358 26.1133 66.5364 31.5707 69.6872L31.9152 69.8464L31.8977 69.8768L31.9445 69.8641L31.9742 69.8812C35.8642 72.1271 41.2734 73.0694 48.2031 72.7088C53.6643 72.3247 57.7599 72.0824 60.4898 71.9834C61.478 71.9688 62.5381 72.0098 63.6735 72.1067L63.6563 72.1365C60.9028 74.1104 58.0441 75.7844 55.0809 77.1588C52.6983 78.1237 50.4949 78.7526 48.473 79.0484C46.0012 79.2964 43.9772 79.3651 42.4009 79.2528C40.5968 79.1688 38.4749 78.835 36.0337 78.2498C34.5167 77.8524 32.9312 77.3226 31.2765 76.6602L29.553 75.8646L29.5702 75.8348L29.5227 75.8471L27.9879 75L27.1542 74.5186L27.1417 74.4717L27.0949 74.4844L27.0652 74.4673L27.0528 74.4203L27.0059 74.433L26.8447 74.3002C24.1256 72.7303 21.4147 70.2077 18.7115 66.7319C17.2652 64.7002 15.9936 62.4102 14.8979 59.8625C14.3035 58.5088 13.684 56.4885 13.038 53.8024C12.5663 51.1366 12.3521 48.7123 12.3945 46.5295C12.4327 44.5836 12.7259 42.2659 13.2731 39.5768C13.7374 37.3977 14.7081 34.7537 16.1862 31.6445L16.5712 30.9092ZM24.5306 35.066L24.5905 35.1006L24.5478 35.0362L25.5326 33.3305L25.6097 33.3353L25.5673 33.2703C26.3784 31.9568 27.6468 30.4016 29.3722 28.6055C30.9956 27.1228 32.4903 25.9773 33.8559 25.1708C35.116 24.4087 36.7863 23.6707 38.8655 22.9561C41.6286 22.1579 43.5965 21.7514 44.769 21.7373C46.7426 21.5733 48.6784 21.6805 50.5772 22.0584C51.9218 22.2496 53.6781 22.8515 55.8456 23.8637L55.8752 23.8808L55.858 23.9106L55.9049 23.8979L57.0066 24.534C62.3843 27.6388 65.8979 32.6459 67.5447 39.5545C68.1643 42.6516 68.3374 44.5068 68.0627 45.1196C68.0142 45.57 67.869 46.0042 67.6267 46.4238L67.5923 46.4834C66.8666 47.7403 65.7349 48.2571 64.1966 48.0335L63.2169 47.6681C61.9071 46.9119 61.372 45.4327 61.6116 43.2306C61.6556 42.5112 61.5339 41.5769 61.2454 40.4263C60.6945 38.5383 60.0471 37.0481 59.3027 35.953C58.774 35.0361 57.9163 33.9558 56.7292 32.7118C55.6963 31.7968 54.9218 31.19 54.4062 30.8922L54.4234 30.8624L54.3457 30.8573L54.2141 30.7416L52.6066 29.8135L52.4405 29.7574L52.4577 29.7276L52.3213 29.6886C50.8725 28.8521 48.8326 28.3522 46.2011 28.1893C45.0002 28.1613 43.6072 28.3279 42.0227 28.6892C40.4037 29.1102 39.194 29.5554 38.3937 30.0244C34.9528 31.8141 32.4198 34.1149 30.7961 36.9272L30.7445 37.0167L30.6671 37.0125L30.7097 37.0768L30.6578 37.1668L30.5807 37.1621L30.6234 37.2264L30.4334 37.5554L30.356 37.5512L30.3987 37.6156L30.0876 38.1543L30.0137 38.3509L29.9841 38.3337C29.3779 39.6589 28.9722 40.7281 28.767 41.5414C27.7848 45.4418 27.8441 48.9602 28.9446 52.0957C29.4934 53.8492 30.25 55.4025 31.2144 56.7571C32.5711 58.5774 34.0435 59.9464 35.6312 60.863L36.2562 61.2239L36.2687 61.2708L36.3155 61.2581L36.3748 61.2924C38.9945 62.8048 42.3389 63.4058 46.4077 63.0958C57.3502 62.6578 65.9622 62.431 72.2434 62.4135L72.2559 62.4605L72.2383 62.4908C69.9055 65.7984 68.2307 67.9432 67.2144 68.9248C57.2281 69.3554 51.6666 69.6154 50.5313 69.7048C45.3719 70.024 41.7465 69.9783 39.6546 69.5684C37.3099 69.0927 35.0851 68.2469 32.9817 67.0325C28.4173 64.3972 25.099 60.4737 23.0278 55.2615C22.6973 54.4591 22.3012 52.9675 21.8409 50.7867C21.2637 46.8361 21.5549 43.0557 22.7143 39.4431C23.1274 38.1382 23.7311 36.6791 24.5306 35.066ZM32.7256 39.1585L32.7855 39.1931L32.7428 39.1287L33.2786 38.2008L33.3732 38.1752L33.3305 38.1108L33.3477 38.081L33.4252 38.0852L33.3825 38.0208C33.8892 37.1431 34.7825 36.0765 36.0634 34.8207C38.8851 32.4078 42.2001 31.2497 46.0076 31.3467C48.3201 31.5116 50.3402 32.0928 52.0663 33.0894L52.2448 33.1925C55.5395 35.0946 57.7025 38.2453 58.7348 42.6441C58.9968 44.391 58.8451 45.7533 58.281 46.7303C57.5783 47.9475 56.4096 48.4827 54.7741 48.3362C54.4388 48.2751 54.1166 48.1686 53.8072 48.0172C52.8153 47.4445 52.2391 46.1278 52.0791 44.0674C51.9749 42.5979 51.5428 41.4438 50.7827 40.6068C50.246 39.9776 49.6503 39.4747 48.9951 39.0964L48.8759 39.0276C46.8911 37.8817 44.628 37.7453 42.0867 38.6185C40.5656 39.2822 39.3093 40.4727 38.3191 42.1877L38.2108 42.4438L38.1812 42.4267L38.1933 42.4742L38.1585 42.5344C37.249 44.1097 37.0479 46.0154 37.5569 48.2501C38.2265 50.2066 39.4353 51.6882 41.1818 52.6966C42.6701 53.5559 45.4562 53.7947 49.5399 53.4131C60.9186 52.9083 69.8323 52.6156 76.282 52.5373C75.4824 55.4796 74.6854 57.6388 73.8906 59.0155C68.5601 59.4486 61.8834 59.7161 53.8605 59.8179C51.1337 59.8657 48.2566 60.0129 45.2296 60.2598C42.3942 60.4046 39.8545 59.8304 37.6121 58.5358C34.4965 56.737 32.4001 53.9972 31.3235 50.3169C30.906 48.4272 30.7527 46.8358 30.8645 45.544C31.1583 43.2937 31.478 41.8686 31.8231 41.2708C31.9401 40.8857 32.2403 40.1817 32.7256 39.1585Z" fill="black"/>
</svg>
