<?xml version="1.0" encoding="utf-8"?>
<!-- Generator: Adobe Illustrator 16.0.0, SVG Export Plug-In . SVG Version: 6.00 Build 0)  -->
<!DOCTYPE svg PUBLIC "-//W3C//DTD SVG 1.0//EN" "http://www.w3.org/TR/2001/REC-SVG-20010904/DTD/svg10.dtd">
<svg version="1.0" id="Layer_1" xmlns="http://www.w3.org/2000/svg" xmlns:xlink="http://www.w3.org/1999/xlink" x="0px" y="0px"
	 width="100px" height="100px" viewBox="0 0 100 100" enable-background="new 0 0 100 100" xml:space="preserve">
<path d="M46.667,70c0,3.665-3.002,6.667-6.667,6.667h-6.667c-3.665,0-6.666-3.002-6.666-6.667V30c0-3.665,3.001-6.667,6.666-6.667
	H40c3.665,0,6.667,3.002,6.667,6.667V70z"/>
<path d="M73.333,70c0,3.665-3.001,6.667-6.666,6.667H60c-3.665,0-6.667-3.002-6.667-6.667V30c0-3.665,3.002-6.667,6.667-6.667h6.667
	c3.665,0,6.666,3.002,6.666,6.667V70z"/>
</svg>
