<?xml version="1.0" encoding="UTF-8"?><svg id="uuid-f12596af-1c6c-4d80-9423-b3f1ba6f3d99" xmlns="http://www.w3.org/2000/svg" xmlns:xlink="http://www.w3.org/1999/xlink" viewBox="0 0 1600 520"><defs><linearGradient id="uuid-1cd98a91-6d0e-4f72-bd35-8751e5ba9187" x1="-978.19" y1="5621.06" x2="43.59" y2="3640.87" gradientTransform="translate(774 5546.42) scale(1 -1)" gradientUnits="userSpaceOnUse"><stop offset="0" stop-color="#e8fcff"/><stop offset=".1" stop-color="#d7fafc"/><stop offset=".22" stop-color="#c9f9fc"/><stop offset=".24" stop-color="#c2f6fb"/><stop offset=".28" stop-color="#b2f0f8"/><stop offset=".32" stop-color="#97e4f4"/><stop offset=".38" stop-color="#79d5ef"/><stop offset=".43" stop-color="#5cc2e8"/><stop offset=".45" stop-color="#57bce6"/><stop offset=".46" stop-color="#58bee6"/><stop offset=".54" stop-color="#69ceeb"/><stop offset=".61" stop-color="#7bd9ee"/><stop offset=".67" stop-color="#85e0f0"/><stop offset=".71" stop-color="#8ae3f1"/><stop offset=".75" stop-color="#85e0f0"/><stop offset=".82" stop-color="#7cdaef"/><stop offset=".89" stop-color="#6cd0eb"/><stop offset=".97" stop-color="#5bc1e8"/><stop offset="1" stop-color="#57bce6"/></linearGradient><linearGradient id="uuid-987b5621-6855-4933-9b5d-26956c305750" x1="-769.56" y1="5723.72" x2="255.69" y2="3734.72" gradientTransform="translate(774 5546.42) scale(1 -1)" gradientUnits="userSpaceOnUse"><stop offset="0" stop-color="#e8fcff"/><stop offset=".1" stop-color="#d7fafc"/><stop offset=".22" stop-color="#c9f9fc"/><stop offset=".24" stop-color="#c2f6fb"/><stop offset=".28" stop-color="#b2f0f8"/><stop offset=".32" stop-color="#97e4f4"/><stop offset=".38" stop-color="#79d5ef"/><stop offset=".43" stop-color="#5cc2e8"/><stop offset=".45" stop-color="#57bce6"/><stop offset=".46" stop-color="#59bfe7"/><stop offset=".54" stop-color="#6acfeb"/><stop offset=".61" stop-color="#7cdaee"/><stop offset=".67" stop-color="#86e1f0"/><stop offset=".71" stop-color="#8be4f2"/><stop offset=".75" stop-color="#86e1f0"/><stop offset=".82" stop-color="#7ddbef"/><stop offset=".89" stop-color="#6cd0eb"/><stop offset=".97" stop-color="#5bc2e8"/><stop offset="1" stop-color="#57bce6"/></linearGradient><linearGradient id="uuid-7c24870b-a39b-4901-a1fc-32c76a2c8e84" x1="-651.81" y1="5778.87" x2="376.76" y2="3781.32" gradientTransform="translate(774 5546.42) scale(1 -1)" gradientUnits="userSpaceOnUse"><stop offset="0" stop-color="#e8fcff"/><stop offset=".1" stop-color="#d7fafc"/><stop offset=".22" stop-color="#c9f9fc"/><stop offset=".24" stop-color="#c2f6fb"/><stop offset=".28" stop-color="#b2f0f8"/><stop offset=".32" stop-color="#97e4f4"/><stop offset=".38" stop-color="#79d5ef"/><stop offset=".43" stop-color="#5cc2e8"/><stop offset=".45" stop-color="#57bce6"/><stop offset=".46" stop-color="#59bfe7"/><stop offset=".54" stop-color="#6acfeb"/><stop offset=".61" stop-color="#7ddbef"/><stop offset=".67" stop-color="#87e2f1"/><stop offset=".71" stop-color="#8ce5f3"/><stop offset=".75" stop-color="#87e2f1"/><stop offset=".82" stop-color="#7edcef"/><stop offset=".89" stop-color="#6dd1ec"/><stop offset=".97" stop-color="#5cc2e8"/><stop offset="1" stop-color="#57bce6"/></linearGradient><linearGradient id="uuid-5e6081e6-f15e-41cf-8c39-0c70a0e1c698" x1="-563.54" y1="5818.26" x2="468.19" y2="3812.42" gradientTransform="translate(774 5546.42) scale(1 -1)" gradientUnits="userSpaceOnUse"><stop offset="0" stop-color="#e8fcff"/><stop offset=".1" stop-color="#d7fafc"/><stop offset=".22" stop-color="#c9f9fc"/><stop offset=".24" stop-color="#c2f6fb"/><stop offset=".28" stop-color="#b1eff8"/><stop offset=".32" stop-color="#97e3f4"/><stop offset=".38" stop-color="#78d4ee"/><stop offset=".43" stop-color="#5cc1e8"/><stop offset=".45" stop-color="#56bbe6"/><stop offset=".47" stop-color="#59bfe7"/><stop offset=".54" stop-color="#6bd0ec"/><stop offset=".61" stop-color="#7edcf0"/><stop offset=".67" stop-color="#89e3f2"/><stop offset=".71" stop-color="#8ee6f4"/><stop offset=".75" stop-color="#89e3f2"/><stop offset=".82" stop-color="#7fdcf0"/><stop offset=".89" stop-color="#6ed1ec"/><stop offset=".97" stop-color="#5cc2e8"/><stop offset="1" stop-color="#56bbe6"/></linearGradient><linearGradient id="uuid-eab8cedc-bbe0-4527-9550-85d2d5988dd7" x1="-489.44" y1="5849.82" x2="545.36" y2="3835.93" gradientTransform="translate(774 5546.42) scale(1 -1)" gradientUnits="userSpaceOnUse"><stop offset="0" stop-color="#e8fcff"/><stop offset=".1" stop-color="#d7fafc"/><stop offset=".22" stop-color="#c9f9fc"/><stop offset=".24" stop-color="#c2f6fb"/><stop offset=".28" stop-color="#b1eff8"/><stop offset=".32" stop-color="#97e3f3"/><stop offset=".38" stop-color="#78d4ee"/><stop offset=".43" stop-color="#5cc1e8"/><stop offset=".45" stop-color="#56bbe5"/><stop offset=".47" stop-color="#59bfe7"/><stop offset=".54" stop-color="#6cd0eb"/><stop offset=".61" stop-color="#7edcf0"/><stop offset=".67" stop-color="#8ae4f2"/><stop offset=".71" stop-color="#8fe7f4"/><stop offset=".75" stop-color="#8ae4f2"/><stop offset=".81" stop-color="#80ddf0"/><stop offset=".89" stop-color="#6fd2ec"/><stop offset=".96" stop-color="#5dc3e8"/><stop offset="1" stop-color="#56bbe5"/></linearGradient><linearGradient id="uuid-cd0424b0-e1bd-4743-befc-1a3db476986b" x1="-423.51" y1="5876.62" x2="614.18" y2="3854.95" gradientTransform="translate(774 5546.42) scale(1 -1)" gradientUnits="userSpaceOnUse"><stop offset="0" stop-color="#e8fcff"/><stop offset=".1" stop-color="#d7fafc"/><stop offset=".22" stop-color="#c9f9fc"/><stop offset=".24" stop-color="#c2f6fb"/><stop offset=".28" stop-color="#b1eff8"/><stop offset=".32" stop-color="#97e3f3"/><stop offset=".38" stop-color="#78d4ee"/><stop offset=".43" stop-color="#5cc1e8"/><stop offset=".45" stop-color="#56bbe5"/><stop offset=".47" stop-color="#5ac0e7"/><stop offset=".54" stop-color="#6dd1ec"/><stop offset=".61" stop-color="#7fddf1"/><stop offset=".67" stop-color="#8be5f3"/><stop offset=".71" stop-color="#90e8f5"/><stop offset=".75" stop-color="#8be5f3"/><stop offset=".81" stop-color="#80def1"/><stop offset=".88" stop-color="#6fd3ed"/><stop offset=".96" stop-color="#5dc3e8"/><stop offset="1" stop-color="#56bbe5"/></linearGradient><linearGradient id="uuid-b68d59f9-0878-4ac6-a32c-05b01eba7ae8" x1="-399.83" y1="5881.21" x2="640.63" y2="3852" gradientTransform="translate(774 5546.42) scale(1 -1)" gradientUnits="userSpaceOnUse"><stop offset="0" stop-color="#e8fcff"/><stop offset=".1" stop-color="#d7fafc"/><stop offset=".22" stop-color="#c9f9fc"/><stop offset=".24" stop-color="#c2f6fb"/><stop offset=".28" stop-color="#b1eff8"/><stop offset=".32" stop-color="#97e3f3"/><stop offset=".38" stop-color="#78d4ee"/><stop offset=".43" stop-color="#5cc1e8"/><stop offset=".45" stop-color="#56bbe5"/><stop offset=".47" stop-color="#5ac0e7"/><stop offset=".54" stop-color="#6dd2ec"/><stop offset=".61" stop-color="#80def1"/><stop offset=".67" stop-color="#8be6f3"/><stop offset=".71" stop-color="#91e9f5"/><stop offset=".75" stop-color="#8be6f3"/><stop offset=".81" stop-color="#80dff1"/><stop offset=".88" stop-color="#70d4ed"/><stop offset=".96" stop-color="#5dc4e8"/><stop offset="1" stop-color="#56bbe5"/></linearGradient><linearGradient id="uuid-3efa423b-c171-42ed-b620-d834f46ab38e" x1="-393.64" y1="5876.35" x2="649.42" y2="3839.89" gradientTransform="translate(774 5546.42) scale(1 -1)" gradientUnits="userSpaceOnUse"><stop offset="0" stop-color="#e8fcff"/><stop offset=".1" stop-color="#d7fafc"/><stop offset=".22" stop-color="#c9f9fc"/><stop offset=".24" stop-color="#c2f6fb"/><stop offset=".28" stop-color="#b1eff8"/><stop offset=".32" stop-color="#97e3f3"/><stop offset=".38" stop-color="#78d4ee"/><stop offset=".43" stop-color="#5bc0e8"/><stop offset=".45" stop-color="#56bae5"/><stop offset=".47" stop-color="#5ac0e7"/><stop offset=".55" stop-color="#6ed2ed"/><stop offset=".61" stop-color="#80dff1"/><stop offset=".67" stop-color="#8de7f5"/><stop offset=".71" stop-color="#92eaf6"/><stop offset=".75" stop-color="#8de7f5"/><stop offset=".81" stop-color="#81e0f2"/><stop offset=".88" stop-color="#71d4ed"/><stop offset=".96" stop-color="#5ec4e8"/><stop offset="1" stop-color="#56bae5"/></linearGradient><linearGradient id="uuid-07001b16-0ae8-4ec5-b924-fb3c6734741c" x1="-387.23" y1="5871.12" x2="658.31" y2="3827.65" gradientTransform="translate(774 5546.42) scale(1 -1)" gradientUnits="userSpaceOnUse"><stop offset="0" stop-color="#e8fcff"/><stop offset=".1" stop-color="#d7fafc"/><stop offset=".22" stop-color="#c9f9fc"/><stop offset=".24" stop-color="#c2f6fb"/><stop offset=".28" stop-color="#b1eff8"/><stop offset=".32" stop-color="#97e3f3"/><stop offset=".38" stop-color="#78d4ee"/><stop offset=".43" stop-color="#5bc0e8"/><stop offset=".45" stop-color="#56bae5"/><stop offset=".47" stop-color="#5bc1e8"/><stop offset=".55" stop-color="#6fd3ed"/><stop offset=".61" stop-color="#81e0f1"/><stop offset=".67" stop-color="#8ee8f5"/><stop offset=".71" stop-color="#93ebf6"/><stop offset=".75" stop-color="#8ee8f5"/><stop offset=".81" stop-color="#82e1f2"/><stop offset=".88" stop-color="#72d5ee"/><stop offset=".96" stop-color="#5ec4e9"/><stop offset="1" stop-color="#56bae5"/></linearGradient><linearGradient id="uuid-e0cbe0fb-5073-4510-9f33-fb5984c4064e" x1="-380.63" y1="5865.51" x2="667.31" y2="3815.21" gradientTransform="translate(774 5546.42) scale(1 -1)" gradientUnits="userSpaceOnUse"><stop offset="0" stop-color="#e8fcff"/><stop offset=".1" stop-color="#d7fafc"/><stop offset=".22" stop-color="#c9f9fc"/><stop offset=".24" stop-color="#c2f6fb"/><stop offset=".28" stop-color="#b1eff8"/><stop offset=".32" stop-color="#97e3f3"/><stop offset=".38" stop-color="#78d4ee"/><stop offset=".43" stop-color="#5bc0e7"/><stop offset=".45" stop-color="#56bae4"/><stop offset=".48" stop-color="#5bc1e7"/><stop offset=".55" stop-color="#6fd3ed"/><stop offset=".61" stop-color="#81e1f2"/><stop offset=".67" stop-color="#8fe9f6"/><stop offset=".71" stop-color="#94ecf7"/><stop offset=".75" stop-color="#8fe9f6"/><stop offset=".81" stop-color="#83e2f2"/><stop offset=".88" stop-color="#73d6ee"/><stop offset=".96" stop-color="#5fc5e8"/><stop offset="1" stop-color="#56bae4"/></linearGradient><linearGradient id="uuid-50e6c243-4af9-4b83-9edd-7fc40565f0cc" x1="-373.8" y1="5859.53" x2="676.35" y2="3802.71" gradientTransform="translate(774 5546.42) scale(1 -1)" gradientUnits="userSpaceOnUse"><stop offset="0" stop-color="#e8fcff"/><stop offset=".1" stop-color="#d7fafc"/><stop offset=".22" stop-color="#c9f9fc"/><stop offset=".24" stop-color="#c2f6fb"/><stop offset=".28" stop-color="#b1eff8"/><stop offset=".32" stop-color="#97e3f3"/><stop offset=".38" stop-color="#78d4ee"/><stop offset=".43" stop-color="#5bc0e7"/><stop offset=".45" stop-color="#56bae4"/><stop offset=".48" stop-color="#5cc2e7"/><stop offset=".55" stop-color="#70d4ed"/><stop offset=".61" stop-color="#82e1f3"/><stop offset=".67" stop-color="#90eaf7"/><stop offset=".71" stop-color="#95edf8"/><stop offset=".75" stop-color="#90eaf7"/><stop offset=".81" stop-color="#83e2f3"/><stop offset=".88" stop-color="#73d6ef"/><stop offset=".95" stop-color="#5fc5e8"/><stop offset="1" stop-color="#56bae4"/></linearGradient><linearGradient id="uuid-aac222d6-0a5e-4dab-9cf8-794993fa645c" x1="-366.77" y1="5853.19" x2="685.46" y2="3790.1" gradientTransform="translate(774 5546.42) scale(1 -1)" gradientUnits="userSpaceOnUse"><stop offset="0" stop-color="#e8fcff"/><stop offset=".1" stop-color="#d7fafc"/><stop offset=".22" stop-color="#c9f9fc"/><stop offset=".24" stop-color="#c2f6fb"/><stop offset=".28" stop-color="#b1eff8"/><stop offset=".32" stop-color="#97e3f3"/><stop offset=".38" stop-color="#78d3ed"/><stop offset=".43" stop-color="#5bbfe7"/><stop offset=".45" stop-color="#55b9e4"/><stop offset=".48" stop-color="#5cc2e8"/><stop offset=".55" stop-color="#71d5ee"/><stop offset=".61" stop-color="#83e2f3"/><stop offset=".67" stop-color="#91ebf7"/><stop offset=".71" stop-color="#97eef8"/><stop offset=".75" stop-color="#91ebf7"/><stop offset=".81" stop-color="#85e3f3"/><stop offset=".88" stop-color="#74d7ef"/><stop offset=".95" stop-color="#60c6e9"/><stop offset="1" stop-color="#55b9e4"/></linearGradient><linearGradient id="uuid-1fa57d09-44b3-48ba-9f15-ffc8e2ce68a4" x1="-359.53" y1="5846.46" x2="694.66" y2="3777.34" gradientTransform="translate(774 5546.42) scale(1 -1)" gradientUnits="userSpaceOnUse"><stop offset="0" stop-color="#e8fcff"/><stop offset=".1" stop-color="#d7fafc"/><stop offset=".22" stop-color="#c9f9fc"/><stop offset=".24" stop-color="#c2f6fb"/><stop offset=".28" stop-color="#b1eff8"/><stop offset=".32" stop-color="#97e3f3"/><stop offset=".38" stop-color="#78d3ed"/><stop offset=".43" stop-color="#5bbfe7"/><stop offset=".45" stop-color="#55b9e4"/><stop offset=".48" stop-color="#5cc2e8"/><stop offset=".55" stop-color="#72d5ee"/><stop offset=".62" stop-color="#84e3f4"/><stop offset=".67" stop-color="#92ebf7"/><stop offset=".71" stop-color="#97eff9"/><stop offset=".75" stop-color="#92ecf8"/><stop offset=".81" stop-color="#86e4f4"/><stop offset=".88" stop-color="#75d8f0"/><stop offset=".95" stop-color="#60c6e9"/><stop offset="1" stop-color="#55b9e4"/></linearGradient><linearGradient id="uuid-312ce8f3-882b-42f8-ae0c-2f38341b9bd5" x1="-352.08" y1="5839.33" x2="703.92" y2="3764.43" gradientTransform="translate(774 5546.42) scale(1 -1)" gradientUnits="userSpaceOnUse"><stop offset="0" stop-color="#e8fcff"/><stop offset=".1" stop-color="#d7fafc"/><stop offset=".22" stop-color="#c9f9fc"/><stop offset=".24" stop-color="#c2f6fb"/><stop offset=".28" stop-color="#b1eff8"/><stop offset=".32" stop-color="#97e3f3"/><stop offset=".38" stop-color="#78d3ed"/><stop offset=".43" stop-color="#5bbfe7"/><stop offset=".45" stop-color="#55b9e4"/><stop offset=".48" stop-color="#5dc3e8"/><stop offset=".55" stop-color="#73d6ef"/><stop offset=".62" stop-color="#85e4f4"/><stop offset=".67" stop-color="#93ecf8"/><stop offset=".71" stop-color="#98f0f9"/><stop offset=".75" stop-color="#93edf8"/><stop offset=".81" stop-color="#87e5f4"/><stop offset=".88" stop-color="#76d8f0"/><stop offset=".95" stop-color="#61c7e9"/><stop offset="1" stop-color="#55b9e4"/></linearGradient><linearGradient id="uuid-5fe21fb7-5aac-4835-b671-ccb21b68b93e" x1="-344.45" y1="5831.89" x2="713.24" y2="3751.43" gradientTransform="translate(774 5546.42) scale(1 -1)" gradientUnits="userSpaceOnUse"><stop offset="0" stop-color="#e8fcff"/><stop offset=".1" stop-color="#d7fafc"/><stop offset=".22" stop-color="#c9f9fc"/><stop offset=".24" stop-color="#c2f6fb"/><stop offset=".28" stop-color="#b1eff7"/><stop offset=".32" stop-color="#97e3f3"/><stop offset=".38" stop-color="#78d3ed"/><stop offset=".43" stop-color="#5bbfe6"/><stop offset=".45" stop-color="#55b9e3"/><stop offset=".48" stop-color="#5ec4e7"/><stop offset=".55" stop-color="#74d7ef"/><stop offset=".62" stop-color="#86e5f4"/><stop offset=".67" stop-color="#94edf8"/><stop offset=".71" stop-color="#99f1fa"/><stop offset=".75" stop-color="#94eef9"/><stop offset=".81" stop-color="#88e6f5"/><stop offset=".87" stop-color="#77d9f0"/><stop offset=".95" stop-color="#61c7e9"/><stop offset="1" stop-color="#55b9e3"/></linearGradient><linearGradient id="uuid-302c9018-7223-4fa5-9e80-c97bd45556dd" x1="-336.62" y1="5823.99" x2="722.68" y2="3738.19" gradientTransform="translate(774 5546.42) scale(1 -1)" gradientUnits="userSpaceOnUse"><stop offset="0" stop-color="#e8fcff"/><stop offset=".1" stop-color="#d7fafc"/><stop offset=".22" stop-color="#c9f9fc"/><stop offset=".24" stop-color="#c2f6fb"/><stop offset=".28" stop-color="#b1eff7"/><stop offset=".32" stop-color="#97e2f3"/><stop offset=".38" stop-color="#78d3ed"/><stop offset=".43" stop-color="#5abee6"/><stop offset=".45" stop-color="#55b8e3"/><stop offset=".49" stop-color="#5ec4e8"/><stop offset=".56" stop-color="#74d7ef"/><stop offset=".62" stop-color="#88e6f4"/><stop offset=".67" stop-color="#95eef8"/><stop offset=".71" stop-color="#9bf2fa"/><stop offset=".75" stop-color="#96eff9"/><stop offset=".81" stop-color="#89e7f5"/><stop offset=".87" stop-color="#78daf0"/><stop offset=".95" stop-color="#62c8e9"/><stop offset="1" stop-color="#55b8e3"/></linearGradient><linearGradient id="uuid-973af576-0c5f-4fb2-ad20-060a58fb0458" x1="-328.59" y1="5815.77" x2="732.16" y2="3724.88" gradientTransform="translate(774 5546.42) scale(1 -1)" gradientUnits="userSpaceOnUse"><stop offset="0" stop-color="#e8fcff"/><stop offset=".1" stop-color="#d7fafc"/><stop offset=".22" stop-color="#c9f9fc"/><stop offset=".24" stop-color="#c2f6fb"/><stop offset=".28" stop-color="#b1eff7"/><stop offset=".32" stop-color="#97e2f3"/><stop offset=".38" stop-color="#78d3ed"/><stop offset=".43" stop-color="#5abee6"/><stop offset=".45" stop-color="#55b8e3"/><stop offset=".49" stop-color="#5ec4e8"/><stop offset=".56" stop-color="#75d8f0"/><stop offset=".62" stop-color="#88e7f5"/><stop offset=".67" stop-color="#96eff9"/><stop offset=".71" stop-color="#9cf3fb"/><stop offset=".75" stop-color="#97f0f9"/><stop offset=".81" stop-color="#8ae8f6"/><stop offset=".87" stop-color="#78daf1"/><stop offset=".94" stop-color="#62c8e9"/><stop offset="1" stop-color="#55b8e3"/></linearGradient></defs><g id="uuid-fa0ec745-7460-46bd-a87a-5debf225df72"><path d="M0,450.31v4.78c229.14,3.01,458.27,10.85,687.12,18.89,304.3,10.69,608.57,22.79,912.88,33.58v-1.77c-334.05-12.61-668.03-26.82-1002.11-38.77-199.09-7.12-398.48-13.9-597.89-16.72Z" fill="none" stroke-width="0"/><path d="M0,514.46v4.4c68.43.17,136.86.58,205.28,1.14h312.18c-67.2-.91-134.4-1.77-201.59-2.58-105.24-1.27-210.54-2.41-315.86-2.96Z" fill="none" stroke-width="0"/><path d="M0,466.42v4.77c203.76,2.44,407.51,8.25,611.05,14.25,329.67,9.74,659.3,21.01,988.95,31.46v-1.51c-358.4-12.17-716.76-25.38-1075.21-36.27-174.77-5.31-349.77-10.33-524.79-12.7Z" fill="none" stroke-width="0"/><path d="M0,474.51v4.7c195.36,2.14,390.71,7.18,585.88,12.4,322.91,8.63,645.78,18.67,968.66,28.38h45.46c-371.21-12.01-742.4-24.55-1113.66-34.76-161.99-4.46-324.15-8.65-486.34-10.72Z" fill="none" stroke-width="0"/><path d="M0,442.28v4.83c239.79,3.19,479.59,12.01,719.07,21.04,293.65,11.07,587.27,23.5,880.93,34.52v-1.93c-318.87-12.7-637.68-27.08-956.58-39.34-214.22-8.24-428.82-16.13-643.42-19.11Z" fill="none" stroke-width="0"/><path d="M0,458.35v4.79c216.88,2.75,433.75,9.57,650.38,16.59,316.56,10.25,633.07,21.99,949.62,32.59v-1.67c-346.31-12.39-692.58-26.16-1038.93-37.63-186.84-6.19-373.95-12.06-561.07-14.67Z" fill="none" stroke-width="0"/><path d="M0,418.56v4.69c277.6,3.34,555.2,15.65,832.36,28.16,255.88,11.55,511.74,24.22,767.64,35.52v-2.34c-281.05-13.07-562.03-27.77-843.09-40.6-251.94-11.49-504.45-22.54-756.91-25.44Z" fill="none" stroke-width="0"/><path d="M0,490.58v4.62c172.81,1.43,345.62,4.83,518.29,8.4,235.42,4.87,470.81,10.42,706.19,16.4h71.84c-294.11-8.28-588.25-15.87-882.4-22.21-137.88-2.98-275.88-5.75-413.92-7.21Z" fill="none" stroke-width="0"/><path d="M0,392.63c325.06,1.95,650.19,19.1,974.58,36.52,208.48,11.2,416.92,23.25,625.42,34.4V0H0v392.63Z" fill="none" stroke-width="0"/><path d="M0,410.81v4.63c291.93,3.21,583.88,16.9,875.31,30.74,241.57,11.48,483.1,23.97,724.69,35.21v-2.53c-269.55-13.16-539.04-27.85-808.61-40.73-263.4-12.58-527.43-24.68-791.39-27.32Z" fill="none" stroke-width="0"/><path d="M0,506.56v4.48c149.27.69,298.53,2.64,447.71,4.76,92.39,1.3,184.78,2.71,277.17,4.21h149.06c-175.83-3.49-351.67-6.54-527.5-9.23-115.42-1.76-230.91-3.38-346.44-4.22Z" fill="none" stroke-width="0"/><path d="M0,434.31v4.79c253.52,3.34,507.03,13.36,760.19,23.56,279.94,11.28,559.85,23.83,839.81,34.94v-2.06c-307.96-12.93-615.85-27.61-923.82-40.19-225.11-9.19-450.65-18-676.18-21.04Z" fill="none" stroke-width="0"/><path d="M0,498.59v4.56c161.47,1.06,322.94,3.72,484.3,6.54,176.03,3.07,352.05,6.52,528.05,10.31h98.33c-243.58-5.99-487.18-11.27-730.78-15.77-126.56-2.33-253.22-4.49-379.91-5.64Z" fill="none" stroke-width="0"/><path d="M0,403.19v4.51c303.55,2.93,607.13,17.81,910.11,32.86,229.97,11.42,459.9,23.8,689.89,35.03v-2.63c-249.69-12.78-499.32-26.86-749.02-39.42-283.2-14.24-567.14-28.06-850.98-30.36Z" fill="none" stroke-width="0"/><path d="M0,426.39v4.75c264.57,3.38,529.15,14.46,793.31,25.75,268.9,11.49,537.77,24.19,806.69,35.46v-2.21c-295.09-13.04-590.1-27.8-885.2-40.57-237.94-10.28-476.38-20.17-714.8-23.18Z" fill="none" stroke-width="0"/><path d="M0,482.54v4.68c182.6,1.78,365.19,5.92,547.63,10.24,284.21,6.74,568.38,14.51,852.55,22.53h55.5c-334.8-10.27-669.61-20.27-1004.46-28.51-150.29-3.69-300.74-7.17-451.22-8.95Z" fill="none" stroke-width="0"/><path d="M0,395.64v4.49c323.77,2.58,647.59,19.38,970.74,36.21,209.75,10.92,419.48,22.6,629.26,33.34v-2.84c-250.93-13.43-501.79-28.14-752.75-41.07-281.93-14.52-564.66-28.43-847.25-30.13Z" fill="none" stroke-width="0"/><path d="M0,520h205.28c-68.42-.56-136.85-.97-205.28-1.14v1.14Z" fill="url(#uuid-1cd98a91-6d0e-4f72-bd35-8751e5ba9187)" stroke-width="0"/><path d="M0,511.04v3.42c105.32.55,210.62,1.69,315.86,2.96,67.2.81,134.4,1.67,201.59,2.58h207.42c-92.39-1.5-184.78-2.9-277.17-4.21-149.18-2.11-298.44-4.07-447.71-4.76Z" fill="url(#uuid-987b5621-6855-4933-9b5d-26956c305750)" stroke-width="0"/><path d="M0,503.15v3.41c115.52.84,231.02,2.45,346.44,4.22,175.83,2.68,351.67,5.74,527.5,9.23h138.42c-176.01-3.79-352.02-7.23-528.05-10.31-161.36-2.82-322.82-5.48-484.3-6.54Z" fill="url(#uuid-7c24870b-a39b-4901-a1fc-32c76a2c8e84)" stroke-width="0"/><path d="M0,495.2v3.39c126.69,1.14,253.35,3.31,379.91,5.64,243.6,4.5,487.2,9.78,730.78,15.77h113.8c-235.38-5.98-470.77-11.53-706.19-16.4-172.67-3.57-345.48-6.97-518.29-8.4Z" fill="url(#uuid-5e6081e6-f15e-41cf-8c39-0c70a0e1c698)" stroke-width="0"/><path d="M0,487.23v3.35c138.03,1.46,276.04,4.23,413.92,7.21,294.15,6.34,588.29,13.93,882.4,22.21h103.86c-284.17-8.02-568.35-15.78-852.55-22.53-182.44-4.32-365.03-8.46-547.63-10.24Z" fill="url(#uuid-eab8cedc-bbe0-4527-9550-85d2d5988dd7)" stroke-width="0"/><path d="M0,479.22v3.33c150.48,1.78,300.93,5.25,451.22,8.95,334.85,8.24,669.66,18.24,1004.46,28.51h98.86c-322.88-9.72-645.75-19.75-968.66-28.38-195.17-5.22-390.52-10.26-585.88-12.4Z" fill="url(#uuid-cd0424b0-e1bd-4743-befc-1a3db476986b)" stroke-width="0"/><path d="M0,471.2v3.32c162.19,2.08,324.36,6.27,486.34,10.72,371.26,10.21,742.45,22.76,1113.66,34.76v-3.09c-329.65-10.45-659.28-21.72-988.95-31.46-203.54-6.01-407.29-11.81-611.05-14.25Z" fill="url(#uuid-b68d59f9-0878-4ac6-a32c-05b01eba7ae8)" stroke-width="0"/><path d="M0,463.14v3.28c175.02,2.37,350.02,7.39,524.79,12.7,358.45,10.89,716.81,24.1,1075.21,36.27v-3.08c-316.54-10.6-633.06-22.33-949.62-32.59-216.63-7.02-433.5-13.84-650.38-16.59Z" fill="url(#uuid-3efa423b-c171-42ed-b620-d834f46ab38e)" stroke-width="0"/><path d="M0,455.09v3.26c187.13,2.61,374.23,8.48,561.07,14.67,346.35,11.47,692.61,25.23,1038.93,37.63v-3.09c-304.31-10.79-608.57-22.89-912.88-33.58-228.85-8.04-457.99-15.88-687.12-18.89Z" fill="url(#uuid-07001b16-0ae8-4ec5-b924-fb3c6734741c)" stroke-width="0"/><path d="M0,447.11v3.2c199.41,2.81,398.8,9.59,597.89,16.72,334.08,11.95,668.06,26.15,1002.11,38.77v-3.12c-293.66-11.02-587.28-23.45-880.93-34.52-239.48-9.03-479.28-17.85-719.07-21.04Z" fill="url(#uuid-e0cbe0fb-5073-4510-9f33-fb5984c4064e)" stroke-width="0"/><path d="M0,439.11v3.18c214.6,2.98,429.2,10.87,643.42,19.11,318.9,12.26,637.71,26.65,956.58,39.34v-3.13c-279.96-11.1-559.87-23.65-839.81-34.94-253.16-10.21-506.67-20.22-760.19-23.56Z" fill="url(#uuid-50e6c243-4af9-4b83-9edd-7fc40565f0cc)" stroke-width="0"/><path d="M0,431.14v3.17c225.53,3.03,451.07,11.85,676.18,21.04,307.98,12.58,615.86,27.26,923.82,40.19v-3.2c-268.92-11.27-537.79-23.97-806.69-35.46-264.17-11.29-528.74-22.37-793.31-25.75Z" fill="url(#uuid-aac222d6-0a5e-4dab-9cf8-794993fa645c)" stroke-width="0"/><path d="M0,423.25v3.14c238.41,3.02,476.85,12.9,714.8,23.18,295.1,12.77,590.12,27.53,885.2,40.57v-3.21c-255.91-11.3-511.76-23.98-767.64-35.52-277.15-12.51-554.76-24.82-832.36-28.16Z" fill="url(#uuid-1fa57d09-44b3-48ba-9f15-ffc8e2ce68a4)" stroke-width="0"/><path d="M0,415.44v3.12c252.46,2.9,504.97,13.96,756.91,25.44,281.06,12.82,562.04,27.53,843.09,40.6v-3.21c-241.59-11.23-483.12-23.73-724.69-35.21-291.43-13.84-583.38-27.53-875.31-30.74Z" fill="url(#uuid-312ce8f3-882b-42f8-ae0c-2f38341b9bd5)" stroke-width="0"/><path d="M0,407.7v3.11c263.96,2.64,527.99,14.74,791.39,27.32,269.57,12.87,539.06,27.57,808.61,40.73v-3.26c-229.98-11.23-459.92-23.61-689.89-35.03-302.98-15.05-606.56-29.93-910.11-32.86Z" fill="url(#uuid-5fe21fb7-5aac-4835-b671-ccb21b68b93e)" stroke-width="0"/><path d="M0,400.14v3.06c283.84,2.29,567.78,16.12,850.98,30.36,249.7,12.56,499.33,26.65,749.02,39.42v-3.29c-209.78-10.74-419.51-22.41-629.26-33.34-323.15-16.83-646.96-33.63-970.74-36.21Z" fill="url(#uuid-302c9018-7223-4fa5-9e80-c97bd45556dd)" stroke-width="0"/><path d="M0,392.63v3.01c282.6,1.7,565.33,15.61,847.25,30.13,250.95,12.93,501.82,27.64,752.75,41.07v-3.3c-208.49-11.15-416.94-23.2-625.42-34.4-324.4-17.41-649.52-34.57-974.58-36.52Z" fill="url(#uuid-973af576-0c5f-4fb2-ad20-060a58fb0458)" stroke-width="0"/></g></svg>