<?xml version="1.0" encoding="UTF-8"?><svg id="uuid-f785ef00-fdb0-48f3-887d-15641c5277b2" xmlns="http://www.w3.org/2000/svg" xmlns:xlink="http://www.w3.org/1999/xlink" viewBox="0 0 1600.32 703.92"><defs><linearGradient id="uuid-49c658c1-4bb2-4e21-8594-d6f80dad4216" x1="206.97" y1="4954.88" x2="1079.37" y2="3273.68" gradientTransform="translate(774 5024) scale(1 -1)" gradientUnits="userSpaceOnUse"><stop offset="0" stop-color="#e9fdff"/><stop offset=".1" stop-color="#d8fbfd"/><stop offset=".22" stop-color="#cafafd"/><stop offset=".24" stop-color="#c3f7fc"/><stop offset=".28" stop-color="#b3f1f9"/><stop offset=".32" stop-color="#98e5f5"/><stop offset=".38" stop-color="#79d7f1"/><stop offset=".43" stop-color="#5dc5ea"/><stop offset=".45" stop-color="#58bfe8"/><stop offset=".53" stop-color="#66cdeb"/><stop offset=".6" stop-color="#77d7ed"/><stop offset=".66" stop-color="#82ddee"/><stop offset=".71" stop-color="#87e0ef"/><stop offset=".76" stop-color="#82ddee"/><stop offset=".82" stop-color="#78d8ed"/><stop offset=".9" stop-color="#69cfeb"/><stop offset=".98" stop-color="#5ac2e9"/><stop offset="1" stop-color="#58bfe8"/></linearGradient><linearGradient id="uuid-f82e5261-1839-43a8-a06c-4d7c45615947" x1="190.84" y1="4961.47" x2="1072.1" y2="3261.43" gradientTransform="translate(774 5024) scale(1 -1)" gradientUnits="userSpaceOnUse"><stop offset="0" stop-color="#e9fdff"/><stop offset=".1" stop-color="#d8fbfd"/><stop offset=".22" stop-color="#cafafd"/><stop offset=".24" stop-color="#c3f7fc"/><stop offset=".28" stop-color="#b3f1f9"/><stop offset=".32" stop-color="#98e5f5"/><stop offset=".38" stop-color="#79d6f0"/><stop offset=".43" stop-color="#5dc4ea"/><stop offset=".45" stop-color="#57bee8"/><stop offset=".53" stop-color="#67cdeb"/><stop offset=".6" stop-color="#78d8ee"/><stop offset=".66" stop-color="#83deef"/><stop offset=".71" stop-color="#88e1f0"/><stop offset=".76" stop-color="#83deef"/><stop offset=".82" stop-color="#79d8ee"/><stop offset=".9" stop-color="#69cfeb"/><stop offset=".98" stop-color="#5ac1e9"/><stop offset="1" stop-color="#57bee8"/></linearGradient><linearGradient id="uuid-7f128b36-f5a0-42fb-b53d-5e140d152023" x1="173.99" y1="4967.8" x2="1064.19" y2="3248.72" gradientTransform="translate(774 5024) scale(1 -1)" gradientUnits="userSpaceOnUse"><stop offset="0" stop-color="#e9fdff"/><stop offset=".1" stop-color="#d8fbfd"/><stop offset=".22" stop-color="#cafafd"/><stop offset=".24" stop-color="#c3f7fc"/><stop offset=".28" stop-color="#b3f1f9"/><stop offset=".32" stop-color="#98e5f5"/><stop offset=".38" stop-color="#79d6f0"/><stop offset=".43" stop-color="#5dc4ea"/><stop offset=".45" stop-color="#58bfe8"/><stop offset=".53" stop-color="#67ceeb"/><stop offset=".6" stop-color="#78d9ee"/><stop offset=".66" stop-color="#83dfef"/><stop offset=".71" stop-color="#88e2f0"/><stop offset=".75" stop-color="#83dfef"/><stop offset=".82" stop-color="#79d9ee"/><stop offset=".9" stop-color="#6acfeb"/><stop offset=".98" stop-color="#5ac2e9"/><stop offset="1" stop-color="#57bee8"/></linearGradient><linearGradient id="uuid-45baecd9-fd38-43bd-aeba-379e7a3cccb6" x1="156.06" y1="4973.87" x2="1055.29" y2="3235.46" gradientTransform="translate(774 5024) scale(1 -1)" gradientUnits="userSpaceOnUse"><stop offset="0" stop-color="#e9fdff"/><stop offset=".1" stop-color="#d8fbfd"/><stop offset=".22" stop-color="#cafafd"/><stop offset=".24" stop-color="#c3f7fc"/><stop offset=".28" stop-color="#b3f1f9"/><stop offset=".32" stop-color="#98e5f5"/><stop offset=".38" stop-color="#79d6f0"/><stop offset=".43" stop-color="#5dc4ea"/><stop offset=".45" stop-color="#57bee8"/><stop offset=".46" stop-color="#58bfe8"/><stop offset=".53" stop-color="#68ceec"/><stop offset=".61" stop-color="#79d9ef"/><stop offset=".66" stop-color="#84e0f0"/><stop offset=".71" stop-color="#89e3f1"/><stop offset=".75" stop-color="#84e0f0"/><stop offset=".82" stop-color="#7adaef"/><stop offset=".89" stop-color="#6ad0ec"/><stop offset=".98" stop-color="#5ac2e9"/><stop offset="1" stop-color="#57bee8"/></linearGradient><linearGradient id="uuid-ff6d7257-58e2-46e9-b0a2-f3cfb0b5ef4b" x1="137.07" y1="4979.65" x2="1045.51" y2="3221.6" gradientTransform="translate(774 5024) scale(1 -1)" gradientUnits="userSpaceOnUse"><stop offset="0" stop-color="#e9fdff"/><stop offset=".1" stop-color="#d8fbfd"/><stop offset=".22" stop-color="#cafafd"/><stop offset=".24" stop-color="#c3f7fc"/><stop offset=".28" stop-color="#b3f1f9"/><stop offset=".32" stop-color="#98e5f5"/><stop offset=".38" stop-color="#79d6f0"/><stop offset=".43" stop-color="#5dc4ea"/><stop offset=".45" stop-color="#57bee8"/><stop offset=".46" stop-color="#59c0e8"/><stop offset=".54" stop-color="#69cfec"/><stop offset=".61" stop-color="#7adaef"/><stop offset=".67" stop-color="#86e1f0"/><stop offset=".71" stop-color="#8be4f2"/><stop offset=".75" stop-color="#86e1f0"/><stop offset=".82" stop-color="#7cdbef"/><stop offset=".89" stop-color="#6bd1ec"/><stop offset=".97" stop-color="#5bc3e9"/><stop offset="1" stop-color="#57bee8"/></linearGradient><linearGradient id="uuid-212509b8-b224-45ef-970d-0db8a5ec01f8" x1="116.71" y1="4985.03" x2="1034.48" y2="3207.06" gradientTransform="translate(774 5024) scale(1 -1)" gradientUnits="userSpaceOnUse"><stop offset="0" stop-color="#e9fdff"/><stop offset=".1" stop-color="#d8fbfd"/><stop offset=".22" stop-color="#cafafd"/><stop offset=".24" stop-color="#c3f7fc"/><stop offset=".28" stop-color="#b3f1f9"/><stop offset=".32" stop-color="#98e5f5"/><stop offset=".38" stop-color="#79d6f0"/><stop offset=".43" stop-color="#5cc3e9"/><stop offset=".45" stop-color="#57bde7"/><stop offset=".46" stop-color="#58bfe7"/><stop offset=".54" stop-color="#69cfec"/><stop offset=".61" stop-color="#7bdaef"/><stop offset=".67" stop-color="#86e1f1"/><stop offset=".71" stop-color="#8be4f2"/><stop offset=".75" stop-color="#86e1f1"/><stop offset=".82" stop-color="#7cdbf0"/><stop offset=".89" stop-color="#6cd1ec"/><stop offset=".97" stop-color="#5bc2e9"/><stop offset="1" stop-color="#57bde7"/></linearGradient><linearGradient id="uuid-fb8db8cf-5b8b-47a9-a5ac-b039a37a88a1" x1="95.26" y1="4990.1" x2="1022.51" y2="3191.88" gradientTransform="translate(774 5024) scale(1 -1)" gradientUnits="userSpaceOnUse"><stop offset="0" stop-color="#e9fdff"/><stop offset=".1" stop-color="#d8fbfd"/><stop offset=".22" stop-color="#cafafd"/><stop offset=".24" stop-color="#c3f7fc"/><stop offset=".28" stop-color="#b3f1f9"/><stop offset=".32" stop-color="#98e5f5"/><stop offset=".38" stop-color="#79d6f0"/><stop offset=".43" stop-color="#5cc3e9"/><stop offset=".45" stop-color="#57bde7"/><stop offset=".46" stop-color="#59c0e8"/><stop offset=".54" stop-color="#6ad0ec"/><stop offset=".61" stop-color="#7cdbef"/><stop offset=".67" stop-color="#87e2f1"/><stop offset=".71" stop-color="#8ce5f3"/><stop offset=".75" stop-color="#87e2f1"/><stop offset=".82" stop-color="#7ddcf0"/><stop offset=".89" stop-color="#6cd1ec"/><stop offset=".97" stop-color="#5bc3e9"/><stop offset="1" stop-color="#57bde7"/></linearGradient><linearGradient id="uuid-10b86017-24e5-4fd9-bb21-09d531cfb20b" x1="71.78" y1="4994.27" x2="1008.55" y2="3175.66" gradientTransform="translate(774 5024) scale(1 -1)" gradientUnits="userSpaceOnUse"><stop offset="0" stop-color="#e9fdff"/><stop offset=".1" stop-color="#d8fbfd"/><stop offset=".22" stop-color="#cafafd"/><stop offset=".24" stop-color="#c3f7fc"/><stop offset=".28" stop-color="#b3f1f9"/><stop offset=".32" stop-color="#98e5f5"/><stop offset=".38" stop-color="#79d6f0"/><stop offset=".43" stop-color="#5cc3e9"/><stop offset=".45" stop-color="#57bde7"/><stop offset=".46" stop-color="#59c0e8"/><stop offset=".54" stop-color="#6ad0ec"/><stop offset=".61" stop-color="#7ddcf0"/><stop offset=".67" stop-color="#88e3f2"/><stop offset=".71" stop-color="#8de6f4"/><stop offset=".75" stop-color="#88e3f2"/><stop offset=".82" stop-color="#7eddf0"/><stop offset=".89" stop-color="#6dd2ed"/><stop offset=".97" stop-color="#5cc3e9"/><stop offset="1" stop-color="#57bde7"/></linearGradient><linearGradient id="uuid-cdc01d8e-d19c-4cb1-bbbf-50438b70c486" x1="46.29" y1="4997.85" x2="992.79" y2="3158.39" gradientTransform="translate(774 5024) scale(1 -1)" gradientUnits="userSpaceOnUse"><stop offset="0" stop-color="#e9fdff"/><stop offset=".1" stop-color="#d8fbfd"/><stop offset=".22" stop-color="#cafafd"/><stop offset=".24" stop-color="#c3f7fc"/><stop offset=".28" stop-color="#b2f0f9"/><stop offset=".32" stop-color="#98e4f5"/><stop offset=".38" stop-color="#78d5ef"/><stop offset=".43" stop-color="#5cc2e9"/><stop offset=".45" stop-color="#56bce7"/><stop offset=".47" stop-color="#59c0e8"/><stop offset=".54" stop-color="#6bd1ed"/><stop offset=".61" stop-color="#7eddf1"/><stop offset=".67" stop-color="#8ae4f3"/><stop offset=".71" stop-color="#8fe7f5"/><stop offset=".75" stop-color="#8ae4f3"/><stop offset=".82" stop-color="#7fddf1"/><stop offset=".89" stop-color="#6ed2ed"/><stop offset=".97" stop-color="#5cc3e9"/><stop offset="1" stop-color="#56bce7"/></linearGradient><linearGradient id="uuid-e5c75906-8fad-4f6f-af0e-7c9bc78db540" x1="18.08" y1="5000.44" x2="974.49" y2="3139.77" gradientTransform="translate(774 5024) scale(1 -1)" gradientUnits="userSpaceOnUse"><stop offset="0" stop-color="#e9fdff"/><stop offset=".1" stop-color="#d8fbfd"/><stop offset=".22" stop-color="#cafafd"/><stop offset=".24" stop-color="#c3f7fc"/><stop offset=".28" stop-color="#b2f0f9"/><stop offset=".32" stop-color="#98e4f4"/><stop offset=".38" stop-color="#78d5ef"/><stop offset=".43" stop-color="#5cc2e9"/><stop offset=".45" stop-color="#56bce6"/><stop offset=".47" stop-color="#59c0e8"/><stop offset=".54" stop-color="#6cd1ec"/><stop offset=".61" stop-color="#7eddf1"/><stop offset=".67" stop-color="#8be5f3"/><stop offset=".71" stop-color="#90e8f5"/><stop offset=".75" stop-color="#8be5f3"/><stop offset=".81" stop-color="#80def1"/><stop offset=".89" stop-color="#6fd3ed"/><stop offset=".96" stop-color="#5dc4e9"/><stop offset="1" stop-color="#56bce6"/></linearGradient><linearGradient id="uuid-b781ab8d-3511-43c3-89c5-af50eca9ef7f" x1="-13.29" y1="5001.68" x2="953.18" y2="3119.47" gradientTransform="translate(774 5024) scale(1 -1)" gradientUnits="userSpaceOnUse"><stop offset="0" stop-color="#e9fdff"/><stop offset=".1" stop-color="#d8fbfd"/><stop offset=".22" stop-color="#cafafd"/><stop offset=".24" stop-color="#c3f7fc"/><stop offset=".28" stop-color="#b2f0f9"/><stop offset=".32" stop-color="#98e4f4"/><stop offset=".38" stop-color="#78d5ef"/><stop offset=".43" stop-color="#5cc2e9"/><stop offset=".45" stop-color="#56bce6"/><stop offset=".47" stop-color="#5ac1e8"/><stop offset=".54" stop-color="#6dd2ed"/><stop offset=".61" stop-color="#7fdef2"/><stop offset=".67" stop-color="#8ce6f4"/><stop offset=".71" stop-color="#91e9f6"/><stop offset=".75" stop-color="#8ce6f4"/><stop offset=".81" stop-color="#80dff2"/><stop offset=".88" stop-color="#6fd4ee"/><stop offset=".96" stop-color="#5dc4e9"/><stop offset="1" stop-color="#56bce6"/></linearGradient><linearGradient id="uuid-6784307b-3e7c-41e7-8f05-a3265719d744" x1="-48.9" y1="5001.1" x2="927.74" y2="3097.04" gradientTransform="translate(774 5024) scale(1 -1)" gradientUnits="userSpaceOnUse"><stop offset="0" stop-color="#e9fdff"/><stop offset=".1" stop-color="#d8fbfd"/><stop offset=".22" stop-color="#cafafd"/><stop offset=".24" stop-color="#c3f7fc"/><stop offset=".28" stop-color="#b2f0f9"/><stop offset=".32" stop-color="#98e4f4"/><stop offset=".38" stop-color="#78d5ef"/><stop offset=".43" stop-color="#5cc2e9"/><stop offset=".45" stop-color="#56bce6"/><stop offset=".47" stop-color="#5ac1e8"/><stop offset=".54" stop-color="#6dd3ed"/><stop offset=".61" stop-color="#80dff2"/><stop offset=".67" stop-color="#8ce7f4"/><stop offset=".71" stop-color="#92eaf6"/><stop offset=".75" stop-color="#8ce7f4"/><stop offset=".81" stop-color="#81e0f2"/><stop offset=".88" stop-color="#70d5ee"/><stop offset=".96" stop-color="#5dc5e9"/><stop offset="1" stop-color="#56bce6"/></linearGradient><linearGradient id="uuid-27a97153-0df9-4553-903b-55801bc4a0a0" x1="-90.63" y1="4997.75" x2="896.38" y2="3071.43" gradientTransform="translate(774 5024) scale(1 -1)" gradientUnits="userSpaceOnUse"><stop offset="0" stop-color="#e9fdff"/><stop offset=".1" stop-color="#d8fbfd"/><stop offset=".22" stop-color="#cafafd"/><stop offset=".24" stop-color="#c3f7fc"/><stop offset=".28" stop-color="#b2f0f9"/><stop offset=".32" stop-color="#98e4f4"/><stop offset=".38" stop-color="#78d5ef"/><stop offset=".43" stop-color="#5bc1e9"/><stop offset=".45" stop-color="#56bbe6"/><stop offset=".47" stop-color="#5ac1e8"/><stop offset=".55" stop-color="#6ed3ee"/><stop offset=".61" stop-color="#81e0f2"/><stop offset=".67" stop-color="#8ee8f6"/><stop offset=".71" stop-color="#93ebf7"/><stop offset=".75" stop-color="#8ee8f6"/><stop offset=".81" stop-color="#82e1f3"/><stop offset=".88" stop-color="#71d5ee"/><stop offset=".96" stop-color="#5ec5e9"/><stop offset="1" stop-color="#56bbe6"/></linearGradient><linearGradient id="uuid-8c2e83f3-b6c8-4817-8549-1b42397c7349" x1="-142.53" y1="4989.58" x2="855.02" y2="3040.62" gradientTransform="translate(774 5024) scale(1 -1)" gradientUnits="userSpaceOnUse"><stop offset="0" stop-color="#e9fdff"/><stop offset=".1" stop-color="#d8fbfd"/><stop offset=".22" stop-color="#cafafd"/><stop offset=".24" stop-color="#c3f7fc"/><stop offset=".28" stop-color="#b2f0f9"/><stop offset=".32" stop-color="#98e4f4"/><stop offset=".38" stop-color="#78d5ef"/><stop offset=".43" stop-color="#5bc1e9"/><stop offset=".45" stop-color="#56bbe6"/><stop offset=".47" stop-color="#5bc2e9"/><stop offset=".55" stop-color="#6fd4ee"/><stop offset=".61" stop-color="#82e1f2"/><stop offset=".67" stop-color="#8fe9f6"/><stop offset=".71" stop-color="#94ecf7"/><stop offset=".75" stop-color="#8fe9f6"/><stop offset=".81" stop-color="#83e2f3"/><stop offset=".88" stop-color="#72d6ef"/><stop offset=".96" stop-color="#5ec5ea"/><stop offset="1" stop-color="#56bbe6"/></linearGradient><linearGradient id="uuid-2b532aa4-7c58-4c70-b258-7d0dddd1a95c" x1="-226.71" y1="4965.31" x2="781.56" y2="2993.33" gradientTransform="translate(774 5024) scale(1 -1)" gradientUnits="userSpaceOnUse"><stop offset="0" stop-color="#e9fdff"/><stop offset=".1" stop-color="#d8fbfd"/><stop offset=".22" stop-color="#cafafd"/><stop offset=".24" stop-color="#c3f7fc"/><stop offset=".28" stop-color="#b2f0f9"/><stop offset=".32" stop-color="#98e4f4"/><stop offset=".38" stop-color="#78d5ef"/><stop offset=".43" stop-color="#5bc1e8"/><stop offset=".45" stop-color="#56bbe5"/><stop offset=".48" stop-color="#5bc2e8"/><stop offset=".55" stop-color="#6fd4ee"/><stop offset=".61" stop-color="#82e2f3"/><stop offset=".67" stop-color="#90eaf7"/><stop offset=".71" stop-color="#95edf8"/><stop offset=".75" stop-color="#90eaf7"/><stop offset=".81" stop-color="#84e3f3"/><stop offset=".88" stop-color="#73d7ef"/><stop offset=".96" stop-color="#5fc6e9"/><stop offset="1" stop-color="#56bbe5"/></linearGradient><linearGradient id="uuid-d16526fe-6104-4ca3-98de-3f7477458cc4" x1="-244.47" y1="4975.47" x2="774.71" y2="2980.05" gradientTransform="translate(774 5024) scale(1 -1)" gradientUnits="userSpaceOnUse"><stop offset="0" stop-color="#e9fdff"/><stop offset=".1" stop-color="#d8fbfd"/><stop offset=".22" stop-color="#cafafd"/><stop offset=".24" stop-color="#c3f7fc"/><stop offset=".28" stop-color="#b2f0f9"/><stop offset=".32" stop-color="#98e4f4"/><stop offset=".38" stop-color="#78d5ef"/><stop offset=".43" stop-color="#5bc1e8"/><stop offset=".45" stop-color="#56bbe5"/><stop offset=".48" stop-color="#5cc3e8"/><stop offset=".55" stop-color="#70d5ee"/><stop offset=".61" stop-color="#83e2f4"/><stop offset=".67" stop-color="#91ebf8"/><stop offset=".71" stop-color="#96eef9"/><stop offset=".75" stop-color="#91ebf8"/><stop offset=".81" stop-color="#84e3f4"/><stop offset=".88" stop-color="#73d7f0"/><stop offset=".95" stop-color="#5fc6e9"/><stop offset="1" stop-color="#56bbe5"/></linearGradient><linearGradient id="uuid-c54241f4-fd6d-4ccc-9109-592465104021" x1="-247.36" y1="4993.59" x2="782.9" y2="2974.32" gradientTransform="translate(774 5024) scale(1 -1)" gradientUnits="userSpaceOnUse"><stop offset="0" stop-color="#e9fdff"/><stop offset=".1" stop-color="#d8fbfd"/><stop offset=".22" stop-color="#cafafd"/><stop offset=".24" stop-color="#c3f7fc"/><stop offset=".28" stop-color="#b2f0f9"/><stop offset=".32" stop-color="#98e4f4"/><stop offset=".38" stop-color="#78d4ee"/><stop offset=".43" stop-color="#5bc0e8"/><stop offset=".45" stop-color="#55bae5"/><stop offset=".48" stop-color="#5cc3e9"/><stop offset=".55" stop-color="#71d6ef"/><stop offset=".61" stop-color="#84e3f4"/><stop offset=".67" stop-color="#92ecf8"/><stop offset=".71" stop-color="#98eff9"/><stop offset=".75" stop-color="#92ecf8"/><stop offset=".81" stop-color="#86e4f4"/><stop offset=".88" stop-color="#74d8f0"/><stop offset=".95" stop-color="#60c7ea"/><stop offset="1" stop-color="#55bae5"/></linearGradient><linearGradient id="uuid-6a6f5152-031b-45f5-af78-e63cc0586241" x1="-250.29" y1="5012.12" x2="791.25" y2="2968.58" gradientTransform="translate(774 5024) scale(1 -1)" gradientUnits="userSpaceOnUse"><stop offset="0" stop-color="#e9fdff"/><stop offset=".1" stop-color="#d8fbfd"/><stop offset=".22" stop-color="#cafafd"/><stop offset=".24" stop-color="#c3f7fc"/><stop offset=".28" stop-color="#b2f0f9"/><stop offset=".32" stop-color="#98e4f4"/><stop offset=".38" stop-color="#78d4ee"/><stop offset=".43" stop-color="#5bc0e8"/><stop offset=".45" stop-color="#55bae5"/><stop offset=".48" stop-color="#5cc3e9"/><stop offset=".55" stop-color="#72d6ef"/><stop offset=".62" stop-color="#85e4f5"/><stop offset=".67" stop-color="#93ecf8"/><stop offset=".71" stop-color="#98f0fa"/><stop offset=".75" stop-color="#93edf9"/><stop offset=".81" stop-color="#87e5f5"/><stop offset=".88" stop-color="#75d9f1"/><stop offset=".95" stop-color="#60c7ea"/><stop offset="1" stop-color="#55bae5"/></linearGradient><linearGradient id="uuid-c322c781-b8dc-4862-b638-dd43de76d11e" x1="-253.25" y1="5030.98" x2="799.77" y2="2962.74" gradientTransform="translate(774 5024) scale(1 -1)" gradientUnits="userSpaceOnUse"><stop offset="0" stop-color="#e9fdff"/><stop offset=".1" stop-color="#d8fbfd"/><stop offset=".22" stop-color="#cafafd"/><stop offset=".24" stop-color="#c3f7fc"/><stop offset=".28" stop-color="#b2f0f9"/><stop offset=".32" stop-color="#98e4f4"/><stop offset=".38" stop-color="#78d4ee"/><stop offset=".43" stop-color="#5bc0e8"/><stop offset=".45" stop-color="#55bae5"/><stop offset=".48" stop-color="#5dc4e9"/><stop offset=".55" stop-color="#73d7f0"/><stop offset=".62" stop-color="#86e5f5"/><stop offset=".67" stop-color="#94edf9"/><stop offset=".71" stop-color="#99f1fa"/><stop offset=".75" stop-color="#94eef9"/><stop offset=".81" stop-color="#88e6f5"/><stop offset=".88" stop-color="#76d9f1"/><stop offset=".95" stop-color="#61c8ea"/><stop offset="1" stop-color="#55bae5"/></linearGradient><linearGradient id="uuid-e0d6c5b1-b017-46d3-9cac-093debc8452b" x1="-256.25" y1="5050.3" x2="808.44" y2="2956.87" gradientTransform="translate(774 5024) scale(1 -1)" gradientUnits="userSpaceOnUse"><stop offset="0" stop-color="#e9fdff"/><stop offset=".1" stop-color="#d8fbfd"/><stop offset=".22" stop-color="#cafafd"/><stop offset=".24" stop-color="#c3f7fc"/><stop offset=".28" stop-color="#b2f0f8"/><stop offset=".32" stop-color="#98e4f4"/><stop offset=".38" stop-color="#78d4ee"/><stop offset=".43" stop-color="#5bc0e7"/><stop offset=".45" stop-color="#55bae4"/><stop offset=".48" stop-color="#5ec5e8"/><stop offset=".55" stop-color="#74d8f0"/><stop offset=".62" stop-color="#87e6f5"/><stop offset=".67" stop-color="#95eef9"/><stop offset=".71" stop-color="#9af2fb"/><stop offset=".75" stop-color="#95effa"/><stop offset=".81" stop-color="#89e7f6"/><stop offset=".87" stop-color="#77daf1"/><stop offset=".95" stop-color="#61c8ea"/><stop offset="1" stop-color="#55bae4"/></linearGradient><linearGradient id="uuid-3d8d814d-5024-4ebf-a59a-d3df2b682537" x1="-259.29" y1="5070.04" x2="817.31" y2="2950.95" gradientTransform="translate(774 5024) scale(1 -1)" gradientUnits="userSpaceOnUse"><stop offset="0" stop-color="#e9fdff"/><stop offset=".1" stop-color="#d8fbfd"/><stop offset=".22" stop-color="#cafafd"/><stop offset=".24" stop-color="#c3f7fc"/><stop offset=".28" stop-color="#b2f0f8"/><stop offset=".32" stop-color="#98e3f4"/><stop offset=".38" stop-color="#78d4ee"/><stop offset=".43" stop-color="#5abfe7"/><stop offset=".45" stop-color="#55b9e4"/><stop offset=".49" stop-color="#5ec5e9"/><stop offset=".56" stop-color="#74d8f0"/><stop offset=".62" stop-color="#89e7f5"/><stop offset=".67" stop-color="#96eff9"/><stop offset=".71" stop-color="#9cf3fb"/><stop offset=".75" stop-color="#97f0fa"/><stop offset=".81" stop-color="#8ae8f6"/><stop offset=".87" stop-color="#78dbf1"/><stop offset=".95" stop-color="#62c9ea"/><stop offset="1" stop-color="#55b9e4"/></linearGradient><linearGradient id="uuid-3ff0ff90-7f72-4522-9ee2-ed4e76e9c73a" x1="-262.38" y1="5090.19" x2="826.34" y2="2944.95" gradientTransform="translate(774 5024) scale(1 -1)" gradientUnits="userSpaceOnUse"><stop offset="0" stop-color="#e9fdff"/><stop offset=".1" stop-color="#d8fbfd"/><stop offset=".22" stop-color="#cafafd"/><stop offset=".24" stop-color="#c3f7fc"/><stop offset=".28" stop-color="#b2f0f8"/><stop offset=".32" stop-color="#98e3f4"/><stop offset=".38" stop-color="#78d4ee"/><stop offset=".43" stop-color="#5abfe7"/><stop offset=".45" stop-color="#55b9e4"/><stop offset=".49" stop-color="#5ec5e9"/><stop offset=".56" stop-color="#75d9f1"/><stop offset=".62" stop-color="#89e8f6"/><stop offset=".67" stop-color="#97f0fa"/><stop offset=".71" stop-color="#9df4fc"/><stop offset=".75" stop-color="#98f1fa"/><stop offset=".81" stop-color="#8be9f7"/><stop offset=".87" stop-color="#78dbf2"/><stop offset=".94" stop-color="#62c9ea"/><stop offset="1" stop-color="#55b9e4"/></linearGradient></defs><g id="uuid-5765433a-f442-42fd-a3d4-435da935a247"><path d="M1600.32,496.12v-3.33c-158.41,26.11-316.12,56.96-473.13,87.14-222.16,42.7-444.66,88.75-668.56,124h55.74c255.4-43.71,509.01-98.63,763.27-147.73,106.93-20.65,214.56-41.45,322.68-60.07Z" fill="none" stroke-width="0"/><path d="M1600.32,516.97v-2.58c-165.51,29.82-330.06,65.84-493.66,101.11-135.42,29.2-270.89,59.78-406.77,88.42h32.91c172.35-37.42,344.18-77.5,516.45-114.63,116.14-25.03,233.27-50.26,351.08-72.32Z" fill="none" stroke-width="0"/><path d="M1600.32,523.38v-3.98c-166.76,30.62-332.48,67.81-497.18,104.25-119.4,26.42-238.82,53.94-358.53,80.27h29.78c156.98-35.43,313.59-72.63,470.59-107.3,118.07-26.08,236.43-51.17,355.34-73.25Z" fill="none" stroke-width="0"/><path d="M1600.32,512v-2.74c-163.57,28.88-326.26,63.55-488.09,97.5-153.72,32.26-307.53,66.25-461.9,97.15h36.62c190.88-39.62,381.03-83.17,571.68-123.19,113.09-23.74,227.08-47.66,341.7-68.73Z" fill="none" stroke-width="0"/><path d="M277.22,572.82c355.08-20.94,707.82-73.58,1060.51-117.79,87.28-10.94,174.84-21.97,262.59-32.2V0H0v579.5c92.44,2.24,185.15-1.25,277.22-6.68Z" fill="none" stroke-width="0"/><path d="M1600.32,541.71v-3.61c-173.9,33.93-346.42,76.41-517.57,118.07-64.4,15.68-128.79,31.72-193.22,47.76h20.7c103.75-26.28,207.47-52.64,311.42-77.76,125.69-30.37,251.78-59.44,378.66-84.45Z" fill="none" stroke-width="0"/><path d="M1600.32,537.33v-3.72c-172.49,33.21-343.69,74.45-513.62,114.89-76.38,18.18-152.76,36.86-229.21,55.42h22.73c115.35-28.52,230.61-57.34,346.14-84.68,124.17-29.38,248.7-57.55,373.96-81.92Z" fill="none" stroke-width="0"/><path d="M1600.32,546.05v-3.59c-175.36,34.64-349.25,78.37-521.65,121.26-53.1,13.21-106.19,26.68-159.3,40.2h19.15c92.13-23.86,184.25-47.64,276.58-70.42,127.82-31.53,256.09-61.69,385.22-87.45Z" fill="none" stroke-width="0"/><path d="M1072.5,671.68c-41.77,10.62-83.52,21.4-125.29,32.24h653.1v-157.14c-177.51,35.44-353.46,80.58-527.82,124.9Z" fill="none" stroke-width="0"/><path d="M277.19,589.88c352.51-23.43,702.46-78.09,1052.44-124.32,89.96-11.88,180.22-23.87,270.69-34.96v-4.71c-139.42,15.65-278.61,33.35-417.77,51.18-181.88,23.3-363.73,47.06-546.04,66.8-164.04,17.75-328.67,32.76-493.66,37.16-47.43,1.26-95.15,1.82-142.86.86v16.74c92.47,1.55,185.15-2.64,277.19-8.76Z" fill="none" stroke-width="0"/><path d="M1600.32,528.15v-3.88c-168.04,31.38-334.98,69.75-500.83,107.38-104.61,23.74-209.22,48.34-314.03,72.27h27.18c142.7-33.33,285.15-67.78,427.96-100.06,119.5-27.01,239.31-52.97,359.72-75.71Z" fill="none" stroke-width="0"/><path d="M1293.82,530.86c101.68-17.86,203.89-35.85,306.5-52.16v-3.99c-153.58,23.26-306.62,50.42-459.09,76.93-332.99,57.9-667.02,122.68-1004.49,148.24-19.65,1.49-39.37,2.85-59.11,4.04h155.05c10.59-1.15,21.18-2.32,31.76-3.53,345.55-39.39,687.08-109.39,1029.38-169.53Z" fill="none" stroke-width="0"/><path d="M1302.59,521.51c98.81-16.76,198.09-33.63,297.73-49v-4.2c-150.82,22.12-301.15,47.83-450.97,72.93-335.66,56.24-672.43,119.4-1012.4,142.77-45.43,3.12-91.16,5.6-136.95,6.69v13.22h35.75c78.16-3.3,156.24-10.31,233.8-18.7,346.66-37.48,689.49-105.44,1033.04-163.71Z" fill="none" stroke-width="0"/><path d="M1600.32,484.68v-3.72c-154.55,24.12-308.51,52.37-461.87,79.98-292.65,52.68-586,110.86-881.98,142.99h92.06c315.8-42.55,628.4-107.92,941.77-164.81,102.81-18.66,206.21-37.45,310.02-54.43Z" fill="none" stroke-width="0"/><path d="M1600.32,490.51v-3.55c-155.56,24.98-310.48,54.33-464.77,83.04-254.17,47.3-508.8,98.89-765.34,133.92h68.82c283.9-43.93,565.42-103.87,847.65-156.72,103.98-19.47,208.58-39.06,313.63-56.7Z" fill="none" stroke-width="0"/><path d="M277.09,606.56c353.49-26.1,719.66-85.69,1055.02-132.1,89.12-12.33,178.55-24.75,268.21-36.24v-4.46c-142.79,16.86-285.31,35.95-427.81,55.18-179.61,24.25-359.19,48.94-539.23,69.71-163.64,18.88-327.89,35.02-492.58,40.54-46.71,1.56-93.7,2.44-140.7,1.85v16.33c92.46.86,185.1-4.01,277.09-10.8Z" fill="none" stroke-width="0"/><path d="M1600.32,501.59v-3.12c-159.49,26.94-318.24,58.9-476.25,90.2-196.9,39.01-394.04,80.74-592.22,115.26h47.41c232.21-42.94,463.07-93.93,694.52-139.92,108.17-21.49,217.09-43.13,326.53-62.41Z" fill="none" stroke-width="0"/><path d="M272.22,623.25c352.47-28.25,701.89-87.96,1051.59-138.64,91.86-13.31,184.06-26.72,276.51-39.08v-4.16c-144.45,17.87-288.61,38.12-432.73,58.53-179.06,25.37-358.1,51.23-537.62,73.2-162.49,19.88-325.61,37.05-489.24,43.76-46.71,1.91-93.71,3.14-140.73,2.9v15.91c90.87.17,181.86-5.19,272.22-12.43Z" fill="none" stroke-width="0"/><path d="M1305.88,512.9c97.73-16,195.93-32.11,294.44-46.83v-4.41c-149.93,21.25-299.4,45.88-448.39,69.91-336.49,54.26-674.21,115.24-1014.84,136.24-45.49,2.8-91.27,4.96-137.09,5.73v14.77c90.19-1.79,180.39-9,269.93-18.06,347.54-35.14,691.44-100.97,1035.94-157.35Z" fill="none" stroke-width="0"/><path d="M1600.32,506.91v-3.01c-162.41,28.07-324,61.6-484.77,94.41-173.23,35.35-346.61,72.83-520.76,105.61h41.59c209.88-41.34,418.76-88.32,628.19-131.13,111.18-22.73,223.17-45.61,335.74-65.88Z" fill="none" stroke-width="0"/><path d="M1317.51,494.26c93.93-14.21,188.23-28.52,282.81-41.67v-3.85c-146.14,18.87-291.95,40.3-437.71,61.91-177.66,26.34-355.27,53.22-533.39,76.27-162.21,21-325.05,39.33-488.48,47.22-46.7,2.26-93.71,3.83-140.74,3.94v15.5c90.32-.49,180.72-6.44,270.48-14.25,351.05-30.55,698.86-92.4,1047.03-145.06Z" fill="none" stroke-width="0"/><path d="M1314.47,503.26c94.92-14.94,190.24-29.98,285.85-43.77v-3.65c-148.92,20.03-297.46,42.81-445.93,65.81-178.42,27.63-356.8,55.82-535.71,80.08-159.85,21.68-320.36,40.71-481.5,49.49-45.52,2.48-91.33,4.31-137.17,4.75v15.17c90.27-1.14,180.58-7.73,270.24-16.17,350.22-32.96,696.99-97.06,1044.23-151.72Z" fill="none" stroke-width="0"/><path d="M1600.32,532.77v-3.76c-169.38,32.15-337.57,71.71-504.58,110.52-90.87,21.12-181.73,42.93-272.72,64.39h24.62c127.78-30.76,255.4-62.14,383.33-91.76,122.66-28.4,245.67-55.68,369.35-79.4Z" fill="none" stroke-width="0"/><path d="M1600.32,546.78v-.72c-129.13,25.76-257.4,55.92-385.22,87.45-92.33,22.78-184.45,46.56-276.58,70.42h8.7c41.76-10.84,83.52-21.62,125.29-32.24,174.35-44.32,350.3-89.47,527.82-124.9Z" fill="url(#uuid-49c658c1-4bb2-4e21-8594-d6f80dad4216)" stroke-width="0"/><path d="M1600.32,542.46v-.75c-126.89,25.01-252.98,54.09-378.66,84.45-103.96,25.12-207.67,51.48-311.42,77.76h9.14c53.11-13.51,106.2-26.98,159.3-40.2,172.4-42.9,346.29-86.62,521.65-121.26Z" fill="url(#uuid-f82e5261-1839-43a8-a06c-4d7c45615947)" stroke-width="0"/><path d="M1600.32,538.09v-.77c-125.26,24.37-249.79,52.54-373.96,81.92-115.53,27.34-230.79,56.16-346.14,84.68h9.32c64.43-16.03,128.82-32.08,193.22-47.76,171.15-41.67,343.67-84.14,517.57-118.07Z" fill="url(#uuid-7f128b36-f5a0-42fb-b53d-5e140d152023)" stroke-width="0"/><path d="M1600.32,533.61v-.84c-123.68,23.72-246.69,51-369.35,79.4-127.93,29.62-255.55,61-383.33,91.76h9.85c76.45-18.55,152.83-37.24,229.21-55.42,169.93-40.45,341.13-81.69,513.62-114.89Z" fill="url(#uuid-45baecd9-fd38-43bd-aeba-379e7a3cccb6)" stroke-width="0"/><path d="M1600.32,529.01v-.85c-120.41,22.73-240.22,48.7-359.72,75.71-142.81,32.28-285.26,66.73-427.96,100.06h10.38c90.99-21.46,181.85-43.27,272.72-64.39,167.01-38.81,335.21-78.37,504.58-110.52Z" fill="url(#uuid-ff6d7257-58e2-46e9-b0a2-f3cfb0b5ef4b)" stroke-width="0"/><path d="M1600.32,524.28v-.9c-118.91,22.08-237.27,47.17-355.34,73.25-157,34.67-313.61,71.87-470.59,107.3h11.07c104.81-23.93,209.42-48.53,314.03-72.27,165.85-37.63,332.79-75.99,500.83-107.38Z" fill="url(#uuid-212509b8-b224-45ef-970d-0db8a5ec01f8)" stroke-width="0"/><path d="M1600.32,519.4v-2.42c-117.81,22.06-234.94,47.28-351.08,72.32-172.26,37.13-344.09,77.21-516.45,114.63h11.81c119.71-26.33,239.13-53.85,358.53-80.27,164.7-36.44,330.42-73.64,497.18-104.25Z" fill="url(#uuid-fb8db8cf-5b8b-47a9-a5ac-b039a37a88a1)" stroke-width="0"/><path d="M1600.32,514.39v-2.39c-114.62,21.07-228.61,44.98-341.7,68.73-190.64,40.02-380.79,83.57-571.68,123.19h12.94c135.88-28.64,271.36-59.22,406.77-88.42,163.6-35.28,328.15-71.3,493.66-101.11Z" fill="url(#uuid-10b86017-24e5-4fd9-bb21-09d531cfb20b)" stroke-width="0"/><path d="M1600.32,509.26v-2.35c-112.57,20.27-224.57,43.15-335.74,65.88-209.43,42.81-418.31,89.78-628.19,131.13h13.94c154.38-30.9,308.19-64.9,461.9-97.15,161.83-33.96,324.52-68.62,488.09-97.5Z" fill="url(#uuid-cdc01d8e-d19c-4cb1-bbbf-50438b70c486)" stroke-width="0"/><path d="M1600.32,503.91v-2.32c-109.45,19.29-218.36,40.92-326.53,62.41-231.46,45.99-462.32,96.98-694.52,139.92h15.53c174.15-32.77,347.53-70.26,520.76-105.61,160.77-32.8,322.35-66.34,484.77-94.41Z" fill="url(#uuid-e5c75906-8fad-4f6f-af0e-7c9bc78db540)" stroke-width="0"/><path d="M1600.32,498.46v-2.35c-108.12,18.62-215.75,39.42-322.68,60.07-254.26,49.1-507.88,104.03-763.27,147.73h17.49c198.18-34.51,395.31-76.25,592.22-115.26,158.01-31.3,316.75-63.26,476.25-90.2Z" fill="url(#uuid-b781ab8d-3511-43c3-89c5-af50eca9ef7f)" stroke-width="0"/><path d="M1600.32,492.78v-2.28c-105.05,17.64-209.65,37.23-313.63,56.7-282.23,52.85-563.75,112.78-847.65,156.72h19.59c223.9-35.25,446.4-81.3,668.56-124,157.01-30.18,314.72-61.03,473.13-87.14Z" fill="url(#uuid-6784307b-3e7c-41e7-8f05-a3265719d744)" stroke-width="0"/><path d="M1600.32,486.96v-2.28c-103.81,16.98-207.2,35.77-310.02,54.43-313.38,56.88-625.97,122.25-941.77,164.81h21.69c256.54-35.03,511.17-86.62,765.34-133.92,154.28-28.71,309.21-58.06,464.77-83.04Z" fill="url(#uuid-27a97153-0df9-4553-903b-55801bc4a0a0)" stroke-width="0"/><path d="M1600.32,480.96v-2.26c-102.6,16.31-204.82,34.3-306.5,52.16-342.3,60.15-683.83,130.14-1029.38,169.53-10.58,1.21-21.16,2.38-31.76,3.53h23.79c295.98-32.12,589.33-90.31,881.98-142.99,153.36-27.61,307.32-55.86,461.87-79.98Z" fill="url(#uuid-8c2e83f3-b6c8-4817-8549-1b42397c7349)" stroke-width="0"/><path d="M1141.23,551.64c152.47-26.51,305.51-53.67,459.09-76.93v-2.2c-99.64,15.37-198.93,32.24-297.73,49-343.55,58.27-686.38,126.23-1033.04,163.71-77.56,8.38-155.63,15.4-233.8,18.7h41.88c19.75-1.19,39.46-2.55,59.11-4.04,337.46-25.56,671.49-90.33,1004.49-148.24Z" fill="url(#uuid-2b532aa4-7c58-4c70-b258-7d0dddd1a95c)" stroke-width="0"/><path d="M1149.35,541.24c149.82-25.11,300.15-50.81,450.97-72.93v-2.24c-98.52,14.72-196.71,30.83-294.44,46.83-344.5,56.38-688.4,122.2-1035.94,157.35-89.54,9.06-179.74,16.27-269.93,18.06v2.39c45.78-1.09,91.51-3.57,136.95-6.69,339.97-23.36,676.75-86.52,1012.4-142.77Z" fill="url(#uuid-d16526fe-6104-4ca3-98de-3f7477458cc4)" stroke-width="0"/><path d="M1151.93,531.57c148.99-24.03,298.46-48.67,448.39-69.91v-2.17c-95.61,13.79-190.93,28.83-285.85,43.77-347.24,54.66-694.01,118.75-1044.23,151.72-89.66,8.44-179.97,15.03-270.24,16.17v2.39c45.83-.76,91.61-2.92,137.09-5.73,340.63-21,678.35-81.98,1014.84-136.24Z" fill="url(#uuid-c54241f4-fd6d-4ccc-9109-592465104021)" stroke-width="0"/><path d="M618.67,601.73c178.92-24.27,357.29-52.45,535.71-80.08,148.47-23,297.02-45.78,445.93-65.81v-3.25c-94.58,13.15-188.88,27.46-282.81,41.67-348.17,52.67-695.98,114.52-1047.03,145.06-89.76,7.81-180.16,13.76-270.48,14.25v2.4c45.85-.44,91.66-2.27,137.17-4.75,161.14-8.78,321.64-27.81,481.5-49.49Z" fill="url(#uuid-6a6f5152-031b-45f5-af78-e63cc0586241)" stroke-width="0"/><path d="M629.22,586.93c178.12-23.05,355.73-49.93,533.39-76.27,145.76-21.61,291.57-43.04,437.71-61.91v-3.2c-92.45,12.36-184.65,25.77-276.51,39.08-349.71,50.68-699.13,110.39-1051.59,138.64-90.36,7.24-181.35,12.6-272.22,12.43v2.4c47.03-.1,94.04-1.68,140.74-3.94,163.43-7.89,326.27-26.22,488.48-47.22Z" fill="url(#uuid-c322c781-b8dc-4862-b638-dd43de76d11e)" stroke-width="0"/><path d="M140.73,616.87c163.63-6.71,326.75-23.87,489.24-43.76,179.52-21.97,358.56-47.82,537.62-73.2,144.12-20.41,288.28-40.67,432.73-58.53v-3.16c-89.66,11.49-179.09,23.91-268.21,36.24-335.36,46.41-701.53,106-1055.02,132.1-91.99,6.79-184.63,11.66-277.09,10.8v2.4c47.02.24,94.03-.99,140.73-2.9Z" fill="url(#uuid-e0d6c5b1-b017-46d3-9cac-093debc8452b)" stroke-width="0"/><path d="M140.7,599.19c164.7-5.52,328.94-21.66,492.58-40.54,180.04-20.77,359.62-45.46,539.23-69.71,142.49-19.23,285.02-38.32,427.81-55.18v-3.16c-90.47,11.08-180.74,23.07-270.69,34.96-349.98,46.23-699.93,100.89-1052.44,124.32-92.04,6.12-184.72,10.3-277.19,8.76v2.41c47,.59,94-.29,140.7-1.85Z" fill="url(#uuid-3d8d814d-5024-4ebf-a59a-d3df2b682537)" stroke-width="0"/><path d="M142.86,581.03c164.99-4.4,329.62-19.4,493.66-37.16,182.31-19.74,364.16-43.5,546.04-66.8,139.16-17.83,278.35-35.53,417.77-51.18v-3.06c-87.75,10.23-175.3,21.26-262.59,32.2-352.69,44.21-705.43,96.86-1060.51,117.79-92.07,5.43-184.78,8.92-277.22,6.68v2.39c47.71.96,95.43.4,142.86-.86Z" fill="url(#uuid-3ff0ff90-7f72-4522-9ee2-ed4e76e9c73a)" stroke-width="0"/></g></svg>