<?xml version="1.0" encoding="UTF-8"?><svg id="uuid-046ef00f-c179-4d40-86da-dab47de66c12" xmlns="http://www.w3.org/2000/svg" xmlns:xlink="http://www.w3.org/1999/xlink" viewBox="0 0 1600 520"><defs><linearGradient id="uuid-e6d30618-b0fa-449d-b1c3-14dc05737756" x1="-7941.35" y1="7396.61" x2="-5822.2" y2="3290.17" gradientTransform="translate(8087.41 -2793.37) rotate(11.38)" gradientUnits="userSpaceOnUse"><stop offset="0" stop-color="#55b8e2" stop-opacity="0"/><stop offset=".09" stop-color="#7ad3ed" stop-opacity=".19"/><stop offset=".15" stop-color="#a0e7f5" stop-opacity=".55"/><stop offset=".19" stop-color="#bcf3f9" stop-opacity=".86"/><stop offset=".22" stop-color="#c8f8fc"/><stop offset=".24" stop-color="#c2f7fc"/><stop offset=".28" stop-color="#b2f5fb"/><stop offset=".32" stop-color="#9bf2fb"/><stop offset=".38" stop-color="#80eefa"/><stop offset=".43" stop-color="#6fe9fa"/><stop offset=".45" stop-color="#6de8fa"/><stop offset=".48" stop-color="#72ebfa"/><stop offset=".54" stop-color="#85effa"/><stop offset=".59" stop-color="#9ff2fb"/><stop offset=".64" stop-color="#b5f6fb"/><stop offset=".68" stop-color="#c3f7fc"/><stop offset=".71" stop-color="#c8f8fc"/><stop offset=".74" stop-color="#c2f3f8"/><stop offset=".78" stop-color="#b2e7ee"/><stop offset=".84" stop-color="#99d3e0"/><stop offset=".89" stop-color="#78b7ca"/><stop offset=".95" stop-color="#4f93b1"/><stop offset="1" stop-color="#327498"/></linearGradient><linearGradient id="uuid-28d8a3a8-585c-4ce3-afdf-f8b5e2fe9835" x1="-7936.49" y1="7405.75" x2="-5831.9" y2="3323.38" gradientTransform="translate(8087.41 -2793.37) rotate(11.38)" gradientUnits="userSpaceOnUse"><stop offset="0" stop-color="#56b9e2" stop-opacity="0"/><stop offset=".09" stop-color="#7ad3ed" stop-opacity=".19"/><stop offset=".15" stop-color="#a0e7f5" stop-opacity=".55"/><stop offset=".19" stop-color="#bcf3f9" stop-opacity=".86"/><stop offset=".22" stop-color="#c7f8fc"/><stop offset=".24" stop-color="#c1f7fc"/><stop offset=".28" stop-color="#b1f5fb"/><stop offset=".33" stop-color="#9af2fb"/><stop offset=".38" stop-color="#80eefa"/><stop offset=".43" stop-color="#6fe9fa"/><stop offset=".45" stop-color="#6de8fa"/><stop offset=".48" stop-color="#72ebfa"/><stop offset=".54" stop-color="#85effa"/><stop offset=".59" stop-color="#9ef2fb"/><stop offset=".64" stop-color="#b4f6fb"/><stop offset=".68" stop-color="#c2f7fc"/><stop offset=".71" stop-color="#c7f8fc"/><stop offset=".74" stop-color="#c1f3f8"/><stop offset=".78" stop-color="#b1e7ee"/><stop offset=".84" stop-color="#98d3e0"/><stop offset=".89" stop-color="#77b6ca"/><stop offset=".95" stop-color="#4f93b1"/><stop offset="1" stop-color="#337599"/></linearGradient><linearGradient id="uuid-314c3c73-69d3-4a50-aad9-50ffd2702e3b" x1="-7930.71" y1="7415.38" x2="-5840.65" y2="3357.08" gradientTransform="translate(8087.41 -2793.37) rotate(11.38)" gradientUnits="userSpaceOnUse"><stop offset="0" stop-color="#56b9e2" stop-opacity="0"/><stop offset=".09" stop-color="#7bd3ed" stop-opacity=".19"/><stop offset=".15" stop-color="#a0e7f5" stop-opacity=".55"/><stop offset=".19" stop-color="#bcf3f9" stop-opacity=".86"/><stop offset=".22" stop-color="#c7f8fc"/><stop offset=".24" stop-color="#c1f7fc"/><stop offset=".28" stop-color="#b1f5fb"/><stop offset=".33" stop-color="#9af2fb"/><stop offset=".38" stop-color="#80eefa"/><stop offset=".44" stop-color="#6fe9fa"/><stop offset=".45" stop-color="#6de8fa"/><stop offset=".48" stop-color="#71ebfa"/><stop offset=".53" stop-color="#84effa"/><stop offset=".59" stop-color="#9df2fb"/><stop offset=".64" stop-color="#b3f6fb"/><stop offset=".68" stop-color="#c1f7fc"/><stop offset=".71" stop-color="#c7f8fc"/><stop offset=".74" stop-color="#c0f3f8"/><stop offset=".78" stop-color="#b1e7ee"/><stop offset=".84" stop-color="#97d2e0"/><stop offset=".89" stop-color="#76b6ca"/><stop offset=".95" stop-color="#4e92b1"/><stop offset="1" stop-color="#34769a"/></linearGradient><linearGradient id="uuid-0320730d-1202-4c17-850e-4536f54805c9" x1="-7924.59" y1="7425.09" x2="-5849.04" y2="3390.92" gradientTransform="translate(8087.41 -2793.37) rotate(11.38)" gradientUnits="userSpaceOnUse"><stop offset="0" stop-color="#57bae3" stop-opacity="0"/><stop offset=".09" stop-color="#7bd4ee" stop-opacity=".19"/><stop offset=".15" stop-color="#a0e7f5" stop-opacity=".55"/><stop offset=".19" stop-color="#bcf3f9" stop-opacity=".86"/><stop offset=".22" stop-color="#c7f8fc"/><stop offset=".24" stop-color="#c0f7fc"/><stop offset=".28" stop-color="#b1f5fb"/><stop offset=".33" stop-color="#9af2fb"/><stop offset=".38" stop-color="#80eefa"/><stop offset=".44" stop-color="#6ee9fa"/><stop offset=".45" stop-color="#6de8fa"/><stop offset=".47" stop-color="#71eafa"/><stop offset=".53" stop-color="#83effa"/><stop offset=".59" stop-color="#9cf2fb"/><stop offset=".64" stop-color="#b1f5fb"/><stop offset=".68" stop-color="#c0f7fc"/><stop offset=".71" stop-color="#c5f8fc"/><stop offset=".74" stop-color="#bff3f8"/><stop offset=".79" stop-color="#afe7ee"/><stop offset=".84" stop-color="#96d3e0"/><stop offset=".9" stop-color="#75b6ca"/><stop offset=".96" stop-color="#4d93b1"/><stop offset="1" stop-color="#35789b"/></linearGradient><linearGradient id="uuid-25cd5f9f-6c01-4533-a033-82a8b7a498fe" x1="-7917.51" y1="7435.3" x2="-5856.49" y2="3425.28" gradientTransform="translate(8087.41 -2793.37) rotate(11.38)" gradientUnits="userSpaceOnUse"><stop offset="0" stop-color="#58bbe3" stop-opacity="0"/><stop offset=".09" stop-color="#7cd4ee" stop-opacity=".19"/><stop offset=".15" stop-color="#a1e8f5" stop-opacity=".55"/><stop offset=".19" stop-color="#bcf3f9" stop-opacity=".86"/><stop offset=".22" stop-color="#c7f8fc"/><stop offset=".24" stop-color="#c0f7fc"/><stop offset=".28" stop-color="#b1f5fb"/><stop offset=".33" stop-color="#9af2fb"/><stop offset=".38" stop-color="#80effa"/><stop offset=".44" stop-color="#6fe9fa"/><stop offset=".45" stop-color="#6ee9fa"/><stop offset=".47" stop-color="#71ebfa"/><stop offset=".53" stop-color="#83effa"/><stop offset=".59" stop-color="#9cf2fb"/><stop offset=".64" stop-color="#b1f5fb"/><stop offset=".68" stop-color="#bff6fc"/><stop offset=".71" stop-color="#c4f7fc"/><stop offset=".74" stop-color="#bef2f8"/><stop offset=".79" stop-color="#aee6ee"/><stop offset=".84" stop-color="#95d2e0"/><stop offset=".9" stop-color="#74b6ca"/><stop offset=".96" stop-color="#4c92b1"/><stop offset="1" stop-color="#35799c"/></linearGradient><linearGradient id="uuid-45b27925-13c3-4c15-ae31-dfe192fdf144" x1="-7910.35" y1="7445.55" x2="-5863.77" y2="3459.62" gradientTransform="translate(8087.41 -2793.37) rotate(11.38)" gradientUnits="userSpaceOnUse"><stop offset="0" stop-color="#58bbe3" stop-opacity="0"/><stop offset=".09" stop-color="#7cd4ee" stop-opacity=".19"/><stop offset=".15" stop-color="#a1e8f5" stop-opacity=".55"/><stop offset=".19" stop-color="#bbf3f9" stop-opacity=".86"/><stop offset=".22" stop-color="#c6f8fc"/><stop offset=".24" stop-color="#c0f7fc"/><stop offset=".28" stop-color="#b0f5fb"/><stop offset=".33" stop-color="#99f2fb"/><stop offset=".38" stop-color="#80eefa"/><stop offset=".44" stop-color="#6fe9fa"/><stop offset=".45" stop-color="#6ee9fa"/><stop offset=".47" stop-color="#71eafa"/><stop offset=".53" stop-color="#82effa"/><stop offset=".58" stop-color="#9bf2fb"/><stop offset=".63" stop-color="#b0f5fb"/><stop offset=".68" stop-color="#bef6fc"/><stop offset=".71" stop-color="#c3f7fc"/><stop offset=".74" stop-color="#bdf2f8"/><stop offset=".79" stop-color="#ade6ee"/><stop offset=".84" stop-color="#94d2e0"/><stop offset=".9" stop-color="#73b5ca"/><stop offset=".96" stop-color="#4c92b1"/><stop offset="1" stop-color="#367a9d"/></linearGradient><linearGradient id="uuid-2c5b8f83-befc-45ef-8919-8339f05ecf9f" x1="-7902.58" y1="7456.06" x2="-5870.47" y2="3494.28" gradientTransform="translate(8087.41 -2793.37) rotate(11.38)" gradientUnits="userSpaceOnUse"><stop offset="0" stop-color="#59bce4" stop-opacity="0"/><stop offset=".09" stop-color="#7dd5ee" stop-opacity=".19"/><stop offset=".15" stop-color="#a1e8f5" stop-opacity=".55"/><stop offset=".19" stop-color="#baf3f9" stop-opacity=".86"/><stop offset=".22" stop-color="#c5f8fc"/><stop offset=".24" stop-color="#bff7fc"/><stop offset=".28" stop-color="#aff5fb"/><stop offset=".33" stop-color="#98f2fb"/><stop offset=".39" stop-color="#80eefa"/><stop offset=".44" stop-color="#6ee9fa"/><stop offset=".45" stop-color="#6ee9fa"/><stop offset=".47" stop-color="#71eafa"/><stop offset=".53" stop-color="#81eefa"/><stop offset=".58" stop-color="#9af1fb"/><stop offset=".63" stop-color="#aff5fb"/><stop offset=".68" stop-color="#bdf6fc"/><stop offset=".71" stop-color="#c3f7fc"/><stop offset=".74" stop-color="#bcf2f8"/><stop offset=".79" stop-color="#ade6ee"/><stop offset=".84" stop-color="#94d2e0"/><stop offset=".9" stop-color="#73b5ca"/><stop offset=".96" stop-color="#4b91b1"/><stop offset="1" stop-color="#377b9e"/></linearGradient><linearGradient id="uuid-d9d9f8ad-4a4e-4aac-aaf8-0847c6bafd1d" x1="-7894.17" y1="7467.03" x2="-5876.45" y2="3529.31" gradientTransform="translate(8087.41 -2793.37) rotate(11.38)" gradientUnits="userSpaceOnUse"><stop offset="0" stop-color="#5abde5" stop-opacity="0"/><stop offset=".09" stop-color="#7ed5ee" stop-opacity=".19"/><stop offset=".15" stop-color="#a1e8f5" stop-opacity=".55"/><stop offset=".19" stop-color="#baf3f9" stop-opacity=".86"/><stop offset=".22" stop-color="#c5f8fc"/><stop offset=".24" stop-color="#bff7fb"/><stop offset=".28" stop-color="#aff5fa"/><stop offset=".33" stop-color="#98f2fa"/><stop offset=".39" stop-color="#80eef9"/><stop offset=".45" stop-color="#6ee9f9"/><stop offset=".46" stop-color="#70eaf9"/><stop offset=".52" stop-color="#80eef9"/><stop offset=".58" stop-color="#99f1fa"/><stop offset=".63" stop-color="#aef5fa"/><stop offset=".68" stop-color="#bcf6fb"/><stop offset=".71" stop-color="#c1f7fc"/><stop offset=".74" stop-color="#bbf2f8"/><stop offset=".79" stop-color="#abe6ee"/><stop offset=".84" stop-color="#92d2e0"/><stop offset=".9" stop-color="#72b6ca"/><stop offset=".96" stop-color="#4b92b1"/><stop offset="1" stop-color="#387d9f"/></linearGradient><linearGradient id="uuid-2853c2b0-f835-4e1e-81f6-8d9eb48d8f8d" x1="-7885.29" y1="7478.17" x2="-5881.92" y2="3564.51" gradientTransform="translate(8087.41 -2793.37) rotate(11.38)" gradientUnits="userSpaceOnUse"><stop offset="0" stop-color="#5abde5" stop-opacity="0"/><stop offset=".09" stop-color="#7ed5ee" stop-opacity=".19"/><stop offset=".15" stop-color="#a1e8f5" stop-opacity=".55"/><stop offset=".19" stop-color="#baf3f9" stop-opacity=".86"/><stop offset=".22" stop-color="#c4f8fc"/><stop offset=".24" stop-color="#bef7fb"/><stop offset=".28" stop-color="#aff5fa"/><stop offset=".33" stop-color="#98f2fa"/><stop offset=".39" stop-color="#80eef9"/><stop offset=".45" stop-color="#6fe9f9"/><stop offset=".46" stop-color="#70eaf9"/><stop offset=".52" stop-color="#80eef9"/><stop offset=".58" stop-color="#98f1fa"/><stop offset=".63" stop-color="#adf5fa"/><stop offset=".68" stop-color="#bbf6fb"/><stop offset=".71" stop-color="#c0f7fc"/><stop offset=".74" stop-color="#baf2f8"/><stop offset=".79" stop-color="#abe6ee"/><stop offset=".84" stop-color="#91d2e0"/><stop offset=".9" stop-color="#71b5ca"/><stop offset=".97" stop-color="#4a92b0"/><stop offset="1" stop-color="#387ea0"/></linearGradient><linearGradient id="uuid-88a8ebf8-59e1-43c8-bcd4-f7535c0f27e4" x1="-7875.55" y1="7489.71" x2="-5886.57" y2="3600.17" gradientTransform="translate(8087.41 -2793.37) rotate(11.38)" gradientUnits="userSpaceOnUse"><stop offset="0" stop-color="#5bbee5" stop-opacity="0"/><stop offset=".09" stop-color="#7fd6ee" stop-opacity=".19"/><stop offset=".15" stop-color="#a1e8f5" stop-opacity=".55"/><stop offset=".19" stop-color="#baf3f9" stop-opacity=".86"/><stop offset=".22" stop-color="#c4f8fc"/><stop offset=".24" stop-color="#bdf7fb"/><stop offset=".28" stop-color="#aef5fa"/><stop offset=".33" stop-color="#97f2fa"/><stop offset=".39" stop-color="#7feef9"/><stop offset=".45" stop-color="#6fe9f9"/><stop offset=".46" stop-color="#6fe9f9"/><stop offset=".52" stop-color="#80eef9"/><stop offset=".58" stop-color="#98f1fa"/><stop offset=".63" stop-color="#adf5fa"/><stop offset=".68" stop-color="#baf6fb"/><stop offset=".71" stop-color="#c0f7fc"/><stop offset=".74" stop-color="#b9f2f8"/><stop offset=".79" stop-color="#aae6ee"/><stop offset=".84" stop-color="#91d1df"/><stop offset=".9" stop-color="#70b5ca"/><stop offset=".97" stop-color="#4a91b0"/><stop offset="1" stop-color="#397fa0"/></linearGradient><linearGradient id="uuid-f4699f25-f07f-4059-b79d-2faeffb16cd3" x1="-7865.01" y1="7501.74" x2="-5890.3" y2="3636.23" gradientTransform="translate(8087.41 -2793.37) rotate(11.38)" gradientUnits="userSpaceOnUse"><stop offset="0" stop-color="#5cbfe5" stop-opacity="0"/><stop offset=".09" stop-color="#80d7ee" stop-opacity=".19"/><stop offset=".15" stop-color="#a2e9f5" stop-opacity=".55"/><stop offset=".19" stop-color="#baf3f9" stop-opacity=".86"/><stop offset=".22" stop-color="#c4f8fc"/><stop offset=".24" stop-color="#bdf7fb"/><stop offset=".29" stop-color="#aef5fa"/><stop offset=".34" stop-color="#97f2fa"/><stop offset=".39" stop-color="#7feef9"/><stop offset=".45" stop-color="#6fe9f9"/><stop offset=".52" stop-color="#80eef9"/><stop offset=".58" stop-color="#97f1fa"/><stop offset=".63" stop-color="#acf5fa"/><stop offset=".67" stop-color="#baf6fb"/><stop offset=".71" stop-color="#bff7fc"/><stop offset=".74" stop-color="#b9f2f8"/><stop offset=".79" stop-color="#a9e6ee"/><stop offset=".84" stop-color="#90d1df"/><stop offset=".9" stop-color="#70b5ca"/><stop offset=".97" stop-color="#4991b0"/><stop offset="1" stop-color="#3a80a1"/></linearGradient><linearGradient id="uuid-20afb28a-e5a2-4b93-9544-b8b12a10f91c" x1="-7853.34" y1="7514.28" x2="-5892.94" y2="3672.89" gradientTransform="translate(8087.41 -2793.37) rotate(11.38)" gradientUnits="userSpaceOnUse"><stop offset="0" stop-color="#5cbfe5" stop-opacity="0"/><stop offset=".09" stop-color="#80d6ee" stop-opacity=".19"/><stop offset=".15" stop-color="#a1e8f5" stop-opacity=".55"/><stop offset=".19" stop-color="#b9f2f9" stop-opacity=".86"/><stop offset=".22" stop-color="#c3f7fc"/><stop offset=".24" stop-color="#bcf6fb"/><stop offset=".29" stop-color="#adf4fa"/><stop offset=".34" stop-color="#96f1fa"/><stop offset=".39" stop-color="#7fedf9"/><stop offset=".45" stop-color="#6fe9f9"/><stop offset=".51" stop-color="#80eef9"/><stop offset=".57" stop-color="#96f1fa"/><stop offset=".63" stop-color="#abf4fa"/><stop offset=".67" stop-color="#b9f6fb"/><stop offset=".71" stop-color="#bef7fc"/><stop offset=".74" stop-color="#b8f2f8"/><stop offset=".79" stop-color="#a8e6ee"/><stop offset=".85" stop-color="#8fd2df"/><stop offset=".91" stop-color="#6fb5ca"/><stop offset=".97" stop-color="#4991b0"/><stop offset="1" stop-color="#3b80a2"/></linearGradient><linearGradient id="uuid-1961d999-ef8b-4259-bace-667a2dc89dc5" x1="-7840.6" y1="7527.31" x2="-5894.46" y2="3710" gradientTransform="translate(8087.41 -2793.37) rotate(11.38)" gradientUnits="userSpaceOnUse"><stop offset="0" stop-color="#5dc0e6" stop-opacity="0"/><stop offset=".09" stop-color="#80d7ef" stop-opacity=".19"/><stop offset=".15" stop-color="#a1e8f6" stop-opacity=".55"/><stop offset=".19" stop-color="#b9f3f9" stop-opacity=".86"/><stop offset=".22" stop-color="#c3f7fc"/><stop offset=".25" stop-color="#bcf6fb"/><stop offset=".29" stop-color="#adf5fa"/><stop offset=".34" stop-color="#96f1fa"/><stop offset=".4" stop-color="#7feef9"/><stop offset=".45" stop-color="#70eaf9"/><stop offset=".51" stop-color="#80eef9"/><stop offset=".57" stop-color="#95f1fa"/><stop offset=".63" stop-color="#aaf3fa"/><stop offset=".67" stop-color="#b7f5fa"/><stop offset=".71" stop-color="#bcf6fc"/><stop offset=".74" stop-color="#b6f1f7"/><stop offset=".79" stop-color="#a7e5ee"/><stop offset=".85" stop-color="#8ed1df"/><stop offset=".91" stop-color="#6eb5ca"/><stop offset=".97" stop-color="#4891b0"/><stop offset="1" stop-color="#3b81a3"/></linearGradient><linearGradient id="uuid-2181987d-d479-474e-8194-5af6c1861aef" x1="-7826.44" y1="7541.15" x2="-5894.53" y2="3747.89" gradientTransform="translate(8087.41 -2793.37) rotate(11.38)" gradientUnits="userSpaceOnUse"><stop offset="0" stop-color="#5ec1e6" stop-opacity="0"/><stop offset=".09" stop-color="#80d7ef" stop-opacity=".19"/><stop offset=".15" stop-color="#a2e9f6" stop-opacity=".55"/><stop offset=".19" stop-color="#b9f3f9" stop-opacity=".86"/><stop offset=".22" stop-color="#c2f7fc"/><stop offset=".25" stop-color="#bcf6fb"/><stop offset=".29" stop-color="#adf5fa"/><stop offset=".34" stop-color="#96f1fa"/><stop offset=".4" stop-color="#7feef9"/><stop offset=".45" stop-color="#70eaf9"/><stop offset=".51" stop-color="#7feef9"/><stop offset=".57" stop-color="#95f1fa"/><stop offset=".63" stop-color="#a9f3fa"/><stop offset=".67" stop-color="#b6f5fa"/><stop offset=".71" stop-color="#bcf6fc"/><stop offset=".74" stop-color="#b5f1f7"/><stop offset=".79" stop-color="#a6e5ee"/><stop offset=".85" stop-color="#8dd1df"/><stop offset=".91" stop-color="#6db4ca"/><stop offset=".98" stop-color="#4891af"/><stop offset="1" stop-color="#3c82a4"/></linearGradient><linearGradient id="uuid-aa70fe9b-0a58-458f-9692-28c0a1d1f5ce" x1="-7810.7" y1="7555.74" x2="-5893" y2="3786.55" gradientTransform="translate(8087.41 -2793.37) rotate(11.38)" gradientUnits="userSpaceOnUse"><stop offset="0" stop-color="#5fc1e6" stop-opacity="0"/><stop offset=".09" stop-color="#81d7ef" stop-opacity=".19"/><stop offset=".15" stop-color="#a2e9f6" stop-opacity=".55"/><stop offset=".19" stop-color="#b8f3f9" stop-opacity=".86"/><stop offset=".22" stop-color="#c1f7fc"/><stop offset=".25" stop-color="#bbf6fb"/><stop offset=".29" stop-color="#acf4fa"/><stop offset=".34" stop-color="#95f1fa"/><stop offset=".4" stop-color="#7eeef9"/><stop offset=".45" stop-color="#71eaf9"/><stop offset=".51" stop-color="#7feef9"/><stop offset=".57" stop-color="#94f1fa"/><stop offset=".63" stop-color="#a8f3fa"/><stop offset=".67" stop-color="#b6f5fa"/><stop offset=".71" stop-color="#bbf6fc"/><stop offset=".74" stop-color="#b5f1f7"/><stop offset=".79" stop-color="#a5e5ee"/><stop offset=".85" stop-color="#8cd0df"/><stop offset=".91" stop-color="#6cb4ca"/><stop offset=".98" stop-color="#4790af"/><stop offset="1" stop-color="#3c83a5"/></linearGradient><linearGradient id="uuid-42568a17-29c8-4b52-925b-1a8e0f2654b8" x1="-7820.11" y1="7557.79" x2="-5916.46" y2="3812.38" gradientTransform="translate(8087.41 -2793.37) rotate(11.38)" gradientUnits="userSpaceOnUse"><stop offset="0" stop-color="#60c2e6" stop-opacity="0"/><stop offset=".09" stop-color="#81d8ef" stop-opacity=".19"/><stop offset=".15" stop-color="#a2e9f6" stop-opacity=".55"/><stop offset=".19" stop-color="#b8f3f9" stop-opacity=".86"/><stop offset=".22" stop-color="#c1f7fc"/><stop offset=".25" stop-color="#bbf6fb"/><stop offset=".29" stop-color="#acf4fa"/><stop offset=".34" stop-color="#95f1fa"/><stop offset=".4" stop-color="#7eeef9"/><stop offset=".45" stop-color="#71ebf9"/><stop offset=".5" stop-color="#7eedf9"/><stop offset=".57" stop-color="#93f1fa"/><stop offset=".62" stop-color="#a8f3fa"/><stop offset=".67" stop-color="#b5f5fa"/><stop offset=".71" stop-color="#baf6fb"/><stop offset=".74" stop-color="#b4f1f7"/><stop offset=".79" stop-color="#a5e5ee"/><stop offset=".85" stop-color="#8cd1df"/><stop offset=".91" stop-color="#6cb4ca"/><stop offset=".98" stop-color="#4791af"/><stop offset="1" stop-color="#3e85a6"/></linearGradient><linearGradient id="uuid-caa9edf5-cafb-4a0b-893b-d5adbdfaa425" x1="-7834.94" y1="7557.07" x2="-5945.26" y2="3835.4" gradientTransform="translate(8087.41 -2793.37) rotate(11.38)" gradientUnits="userSpaceOnUse"><stop offset="0" stop-color="#61c3e6" stop-opacity="0"/><stop offset=".09" stop-color="#81d8ef" stop-opacity=".19"/><stop offset=".15" stop-color="#a2e9f6" stop-opacity=".55"/><stop offset=".19" stop-color="#b7f3f9" stop-opacity=".86"/><stop offset=".22" stop-color="#c0f7fc"/><stop offset=".25" stop-color="#baf6fb"/><stop offset=".29" stop-color="#abf4fa"/><stop offset=".34" stop-color="#95f1fa"/><stop offset=".4" stop-color="#7dedf9"/><stop offset=".45" stop-color="#71ebf9"/><stop offset=".5" stop-color="#7eedf9"/><stop offset=".57" stop-color="#92f0fa"/><stop offset=".62" stop-color="#a7f3fa"/><stop offset=".67" stop-color="#b4f5fa"/><stop offset=".71" stop-color="#baf6fb"/><stop offset=".74" stop-color="#b3f1f7"/><stop offset=".79" stop-color="#a4e5ee"/><stop offset=".85" stop-color="#8bd0df"/><stop offset=".91" stop-color="#6bb4ca"/><stop offset=".98" stop-color="#4690af"/><stop offset="1" stop-color="#3e86a7"/></linearGradient><linearGradient id="uuid-115e4342-9b67-4203-9237-4986c37a21c5" x1="-7847.92" y1="7557.47" x2="-5972.15" y2="3859.4" gradientTransform="translate(8087.41 -2793.37) rotate(11.38)" gradientUnits="userSpaceOnUse"><stop offset="0" stop-color="#62c3e7" stop-opacity="0"/><stop offset=".09" stop-color="#82d8ef" stop-opacity=".19"/><stop offset=".15" stop-color="#a2e9f6" stop-opacity=".55"/><stop offset=".19" stop-color="#b7f3f9" stop-opacity=".86"/><stop offset=".22" stop-color="#c0f7fc"/><stop offset=".25" stop-color="#baf6fb"/><stop offset=".29" stop-color="#abf4fa"/><stop offset=".34" stop-color="#95f1fa"/><stop offset=".41" stop-color="#7dedf9"/><stop offset=".45" stop-color="#72ebf9"/><stop offset=".5" stop-color="#7dedf9"/><stop offset=".56" stop-color="#91f0fa"/><stop offset=".62" stop-color="#a6f3fa"/><stop offset=".67" stop-color="#b3f5fa"/><stop offset=".71" stop-color="#b8f6fb"/><stop offset=".74" stop-color="#b2f1f6"/><stop offset=".79" stop-color="#a3e5ed"/><stop offset=".85" stop-color="#8ad0df"/><stop offset=".92" stop-color="#6ab4c9"/><stop offset=".98" stop-color="#4690af"/><stop offset="1" stop-color="#3f87a8"/></linearGradient><linearGradient id="uuid-5d5a9f5d-89ff-4aaf-a1c8-8581a53abb7c" x1="-7861.5" y1="7557.61" x2="-5999.59" y2="3883.13" gradientTransform="translate(8087.41 -2793.37) rotate(11.38)" gradientUnits="userSpaceOnUse"><stop offset="0" stop-color="#63c4e7" stop-opacity="0"/><stop offset=".09" stop-color="#84d9ef" stop-opacity=".19"/><stop offset=".15" stop-color="#a2e9f6" stop-opacity=".55"/><stop offset=".19" stop-color="#b7f3f9" stop-opacity=".86"/><stop offset=".22" stop-color="#c0f7fc"/><stop offset=".25" stop-color="#baf6fb"/><stop offset=".29" stop-color="#aaf4fa"/><stop offset=".35" stop-color="#94f1fa"/><stop offset=".41" stop-color="#7dedf9"/><stop offset=".45" stop-color="#72ebf9"/><stop offset=".49" stop-color="#7dedf9"/><stop offset=".56" stop-color="#91f0fa"/><stop offset=".62" stop-color="#a5f3fa"/><stop offset=".67" stop-color="#b2f5fa"/><stop offset=".71" stop-color="#b7f6fb"/><stop offset=".74" stop-color="#b1f1f6"/><stop offset=".79" stop-color="#a2e5ed"/><stop offset=".85" stop-color="#89d0df"/><stop offset=".92" stop-color="#6ab4c9"/><stop offset=".99" stop-color="#458fae"/><stop offset="1" stop-color="#3f88a9"/></linearGradient><linearGradient id="uuid-e1f36d10-9f1e-44fc-88bf-a7b0e1fc6810" x1="-7873.95" y1="7558.4" x2="-6025.87" y2="3907.5" gradientTransform="translate(8087.41 -2793.37) rotate(11.38)" gradientUnits="userSpaceOnUse"><stop offset="0" stop-color="#64c5e7" stop-opacity="0"/><stop offset=".09" stop-color="#84d9ef" stop-opacity=".19"/><stop offset=".15" stop-color="#a3eaf6" stop-opacity=".55"/><stop offset=".19" stop-color="#b7f3f9" stop-opacity=".86"/><stop offset=".22" stop-color="#bff7fc"/><stop offset=".25" stop-color="#b9f6fb"/><stop offset=".29" stop-color="#aaf3fa"/><stop offset=".35" stop-color="#93f1fa"/><stop offset=".41" stop-color="#7dedf8"/><stop offset=".45" stop-color="#73ebf8"/><stop offset=".49" stop-color="#7cedf8"/><stop offset=".56" stop-color="#90f0f9"/><stop offset=".62" stop-color="#a4f3f9"/><stop offset=".67" stop-color="#b1f5f9"/><stop offset=".71" stop-color="#b7f6fb"/><stop offset=".74" stop-color="#b0f1f6"/><stop offset=".8" stop-color="#a1e5ed"/><stop offset=".85" stop-color="#88d0df"/><stop offset=".92" stop-color="#69b4c9"/><stop offset=".99" stop-color="#4590af"/><stop offset="1" stop-color="#408aaa"/></linearGradient></defs><g id="uuid-76b64fb8-9340-4dbf-99eb-136e1fe9977f"><path d="M1114.9,432.82c-308.81,3.11-615.12,31.94-915.84,87.18h19.37c237.69-41.55,478.68-67.51,723.28-76.49,219.52-8.06,440.07-3.36,658.29,29.82v-10.8c-160.63-22.63-322.75-31.33-485.1-29.7Z" fill="none" stroke-width="0"/><path d="M1093.32,442.65c-291.98,2.36-581.63,28.11-866.49,77.35h21c222.59-36.55,448.05-59.37,676.61-67.2,225.4-7.71,451.8-1.7,675.56,34.8v-11.03c-167.64-25.36-337.02-35.29-506.68-33.92Z" fill="none" stroke-width="0"/><path d="M1071.78,452.4c-274.32,1.67-546.62,24.21-814.84,67.6h24.18c206.15-31.52,414.75-51.18,625.98-57.88,231.28-7.31,463.6-.02,692.9,40.02v-11.31c-174.62-28.25-351.26-39.52-528.22-38.44Z" fill="none" stroke-width="0"/><path d="M290.97,520h27.83c188.28-26.45,378.58-42.94,570.99-48.55,237.17-6.91,475.45,1.82,710.2,45.55v-11.62c-180.1-31.08-362.51-43.84-545.34-43.27-256.84.79-511.98,20.17-763.69,57.9Z" fill="none" stroke-width="0"/><path d="M330.68,520h31.76c165.28-20.99,332.12-34.22,500.58-38.96,223.97-6.32,448.88,1.22,670.89,38.96h65.32c-185.31-33.96-373.26-48.2-561.62-48.18-237.53.05-473.64,16.24-706.93,48.18Z" fill="none" stroke-width="0"/><path d="M594.99,520h124.67c26.23-.9,52.5-1.6,78.81-2.1,80.98-1.53,162.06-1.06,243.03,2.1h150.59c-74.08-5.79-148.41-8.96-222.85-9.76-125.12-1.34-249.95,1.95-374.25,9.76Z" fill="none" stroke-width="0"/><path d="M818.99,520h129.73c-.38,0-.77-.01-1.15-.02-42.9-.54-85.76-.53-128.59.02Z" fill="none" stroke-width="0"/><path d="M497.65,520h68.72c82.76-5.82,165.89-9.66,249.4-11.44,136.61-2.93,273.51-.3,409.77,11.44h95.83c-111.13-12.44-222.96-18.58-335.01-19.45-163.61-1.26-326.69,5.28-488.7,19.45Z" fill="none" stroke-width="0"/><path d="M376.67,520h37.71c142.62-15.92,286.38-25.97,431.3-29.69,199.69-5.12,400.08.96,598.39,29.69h70.16c-163.17-26.33-328.23-37.95-493.7-38.43-216.11-.63-431.09,12.33-643.86,38.43Z" fill="none" stroke-width="0"/><path d="M432.46,520h45.68c117.55-10.93,235.87-17.9,354.98-20.74,171.71-4.1,343.9.45,514.75,20.74h73.34c-139.84-19.22-280.93-28.05-422.33-28.72-189.92-.92-378.96,8.78-566.42,28.72Z" fill="none" stroke-width="0"/><path d="M1208.14,384.07c-375.61,8.69-747.04,52.59-1109.2,135.93h10.19c300.69-66.22,606.72-107.7,919.15-123.05,190.33-9.35,381.51-9.89,571.71,8.96v-9.55c-130.18-11.87-260.99-15.31-391.86-12.29Z" fill="none" stroke-width="0"/><path d="M1056.93,346.29c180.39-13.03,361.79-20.87,543.07-13.26V0H0v520h29.57c334.63-88.83,676.25-148.35,1027.35-173.71Z" fill="none" stroke-width="0"/><path d="M1251.14,364.41c-400.68,10.83-796.7,60.63-1181.61,155.59h8.2c324.63-76.6,655.45-124.23,993.91-142.09,175.82-9.27,352.41-11.14,528.36,2.83v-9.16c-116-8.4-232.41-10.32-348.86-7.17Z" fill="none" stroke-width="0"/><path d="M1268.25,354.69c-410.92,12.3-816.89,64.86-1210.95,165.31h5.55c337.9-82.23,682.5-132.93,1035.35-151.93,166.97-9,334.63-11.25,501.8.43v-8.96c-110.36-6.97-221.06-8.18-331.75-4.86Z" fill="none" stroke-width="0"/><path d="M1285.32,344.93c-420.87,13.81-836.48,69.06-1239.34,175.07h4.48c347.35-87.12,701.75-140.79,1065.04-161.25,161.19-9.08,323.02-12,484.5-2.23v-8.76c-104.72-5.67-209.71-6.27-314.68-2.83Z" fill="none" stroke-width="0"/><path d="M1222.76,338.62c-404.25,20.35-800.32,78.08-1186.66,181.38h2.67c356.56-92.08,720.55-148.66,1094.03-170.6,155.41-9.15,311.43-12.64,467.19-4.63v-8.56c-125.65-5.52-251.54-3.9-377.24,2.42Z" fill="none" stroke-width="0"/><path d="M1131.98,423.11c-322.94,4.19-642.95,36.16-956.72,96.89h16.59c251.87-46.55,507.46-75.64,767.18-85.83,213.68-8.38,428.3-4.87,640.96,25.11v-10.47c-155.09-20.25-311.46-27.71-468.02-25.7Z" fill="none" stroke-width="0"/><path d="M1166.16,403.71c-349.12,6.57-694.67,44.52-1032.56,116.29h13.1c277.53-56.42,559.6-91.76,846.94-104.47,201.98-8.91,404.89-7.58,606.36,16.53v-9.93c-143.96-15.9-288.86-21.14-433.84-18.42Z" fill="none" stroke-width="0"/><path d="M1183.24,393.98c-361.28,7.88-718.57,48.81-1067.53,126.02h11.64c289.3-61.29,583.53-99.72,883.6-113.73,196.14-9.16,393.19-8.81,589.05,12.61v-9.76c-138.38-13.93-277.54-18.16-416.76-15.13Z" fill="none" stroke-width="0"/><path d="M1149.07,413.38c-336.41,5.38-669.59,40.35-995.81,106.62h14.89c265.09-51.5,534.3-83.71,808.2-95.14,207.82-8.67,416.59-6.27,623.66,20.68v-10.23c-149.54-18.01-300.18-24.33-450.93-21.93Z" fill="none" stroke-width="0"/><path d="M1225.24,374.38c-386.74,10.05-769.04,56.82-1141.23,145.62h8.72c314.3-71.72,634.43-116.36,961.61-132.81,181.63-9.12,364.04-10.19,545.67,6v-9.34c-124.56-10.16-249.65-12.72-374.76-9.48Z" fill="none" stroke-width="0"/><path d="M1056.93,346.29c-351.1,25.36-692.72,84.88-1027.35,173.71h6.54c386.33-103.29,782.41-161.03,1186.66-181.38,125.7-6.32,251.59-7.94,377.24-2.42v-3.18c-181.29-7.62-362.68.23-543.07,13.26Z" fill="url(#uuid-e6d30618-b0fa-449d-b1c3-14dc05737756)" stroke-width="0"/><path d="M1132.81,349.4c-373.48,21.94-737.46,78.52-1094.03,170.6h7.2c402.85-106.01,818.47-161.26,1239.34-175.07,104.98-3.45,209.96-2.85,314.68,2.83v-2.99c-155.76-8.01-311.79-4.51-467.19,4.63Z" fill="url(#uuid-28d8a3a8-585c-4ce3-afdf-f8b5e2fe9835)" stroke-width="0"/><path d="M1115.5,358.75c-363.29,20.46-717.69,74.13-1065.04,161.25h6.84c394.06-100.46,800.02-153.01,1210.95-165.31,110.69-3.32,221.39-2.11,331.75,4.86v-3.03c-161.47-9.77-323.31-6.85-484.5,2.23Z" fill="url(#uuid-314c3c73-69d3-4a50-aad9-50ffd2702e3b)" stroke-width="0"/><path d="M1098.2,368.07c-352.86,19-697.46,69.7-1035.35,151.93h6.69c384.9-94.96,780.93-144.76,1181.61-155.59,116.44-3.15,232.86-1.23,348.86,7.17v-3.07c-167.17-11.68-334.83-9.43-501.8-.43Z" fill="url(#uuid-0320730d-1202-4c17-850e-4536f54805c9)" stroke-width="0"/><path d="M1071.64,377.91c-338.46,17.86-669.28,65.49-993.91,142.09h6.27c372.2-88.8,754.5-135.57,1141.23-145.62,125.11-3.24,250.21-.69,374.76,9.48v-3.12c-175.95-13.97-352.53-12.1-528.36-2.83Z" fill="url(#uuid-25cd5f9f-6c01-4533-a033-82a8b7a498fe)" stroke-width="0"/><path d="M1054.33,387.19c-327.18,16.45-647.31,61.09-961.61,132.81h6.22c362.16-83.34,733.59-127.25,1109.2-135.93,130.87-3.02,261.68.42,391.86,12.29v-3.17c-181.63-16.19-364.04-15.13-545.67-6Z" fill="url(#uuid-45b27925-13c3-4c15-ae31-dfe192fdf144)" stroke-width="0"/><path d="M1028.29,396.95c-312.43,15.35-618.46,56.83-919.15,123.05h6.57c348.96-77.2,706.25-118.14,1067.53-126.02,139.22-3.03,278.38,1.2,416.76,15.13v-3.2c-190.2-18.85-381.39-18.32-571.71-8.96Z" fill="url(#uuid-2c5b8f83-befc-45ef-8919-8339f05ecf9f)" stroke-width="0"/><path d="M1010.95,406.27c-300.07,14.01-594.3,52.44-883.6,113.73h6.25c337.89-71.77,683.44-109.72,1032.56-116.29,144.98-2.72,289.88,2.52,433.84,18.42v-3.25c-195.87-21.42-392.91-21.76-589.05-12.61Z" fill="url(#uuid-d9d9f8ad-4a4e-4aac-aaf8-0847c6bafd1d)" stroke-width="0"/><path d="M993.64,415.53c-287.34,12.7-569.41,48.05-846.94,104.47h6.56c326.22-66.27,659.4-101.23,995.81-106.62,150.75-2.4,301.39,3.92,450.93,21.93v-3.25c-201.48-24.1-404.39-25.44-606.36-16.53Z" fill="url(#uuid-2853c2b0-f835-4e1e-81f6-8d9eb48d8f8d)" stroke-width="0"/><path d="M976.34,424.86c-273.89,11.42-543.11,43.64-808.2,95.14h7.12c313.77-60.73,633.77-92.7,956.72-96.89,156.55-2.01,312.93,5.45,468.02,25.7v-3.27c-207.07-26.95-415.85-29.34-623.66-20.68Z" fill="url(#uuid-88a8ebf8-59e1-43c8-bcd4-f7535c0f27e4)" stroke-width="0"/><path d="M959.04,434.17c-259.71,10.19-515.31,39.29-767.18,85.83h7.2c300.72-55.24,607.03-84.07,915.84-87.18,162.35-1.62,324.47,7.08,485.1,29.7v-3.25c-212.66-29.98-427.29-33.49-640.96-25.11Z" fill="url(#uuid-f4699f25-f07f-4059-b79d-2faeffb16cd3)" stroke-width="0"/><path d="M941.71,443.51c-244.6,8.98-485.59,34.94-723.28,76.49h8.4c284.86-49.25,574.51-74.99,866.49-77.35,169.66-1.37,339.04,8.57,506.68,33.92v-3.24c-218.22-33.18-438.76-37.88-658.29-29.82Z" fill="url(#uuid-20afb28a-e5a2-4b93-9544-b8b12a10f91c)" stroke-width="0"/><path d="M924.44,452.8c-228.56,7.83-454.02,30.65-676.61,67.2h9.11c268.22-43.39,540.52-65.93,814.84-67.6,176.97-1.09,353.6,10.18,528.22,38.44v-3.24c-223.77-36.49-450.16-42.5-675.56-34.8Z" fill="url(#uuid-1961d999-ef8b-4259-bace-667a2dc89dc5)" stroke-width="0"/><path d="M907.1,462.12c-211.23,6.7-419.83,26.36-625.98,57.88h9.85c251.71-37.73,506.85-57.11,763.69-57.9,182.83-.57,365.24,12.2,545.34,43.27v-3.23c-229.3-40.04-461.63-47.34-692.9-40.02Z" fill="url(#uuid-2181987d-d479-474e-8194-5af6c1861aef)" stroke-width="0"/><path d="M889.8,471.45c-192.42,5.61-382.72,22.1-570.99,48.55h11.88c233.29-31.94,469.4-48.13,706.93-48.18,188.37-.02,376.31,14.22,561.62,48.18h.76v-3c-234.75-43.74-473.03-52.46-710.2-45.55Z" fill="url(#uuid-aa70fe9b-0a58-458f-9692-28c0a1d1f5ce)" stroke-width="0"/><path d="M863.03,481.04c-168.46,4.74-335.3,17.97-500.58,38.96h14.23c212.77-26.1,427.75-39.06,643.86-38.43,165.46.48,330.53,12.1,493.7,38.43h19.69c-222.01-37.74-446.91-45.28-670.89-38.96Z" fill="url(#uuid-42568a17-29c8-4b52-925b-1a8e0f2654b8)" stroke-width="0"/><path d="M845.68,490.31c-144.92,3.71-288.67,13.77-431.3,29.69h18.07c187.45-19.94,376.5-29.65,566.42-28.72,141.39.68,282.48,9.5,422.33,28.72h22.87c-198.31-28.72-398.7-34.8-598.39-29.69Z" fill="url(#uuid-caa9edf5-cafb-4a0b-893b-d5adbdfaa425)" stroke-width="0"/><path d="M833.11,499.26c-119.11,2.84-237.42,9.82-354.98,20.74h19.52c162.01-14.17,325.1-20.71,488.7-19.45,112.05.87,223.88,7.01,335.01,19.45h26.48c-170.85-20.3-343.04-24.84-514.75-20.74Z" fill="url(#uuid-115e4342-9b67-4203-9237-4986c37a21c5)" stroke-width="0"/><path d="M815.77,508.56c-83.51,1.78-166.64,5.63-249.4,11.44h28.63c124.3-7.82,249.13-11.11,374.25-9.76,74.44.8,148.77,3.97,222.85,9.76h33.45c-136.26-11.74-273.16-14.37-409.77-11.44Z" fill="url(#uuid-5d5a9f5d-89ff-4aaf-a1c8-8581a53abb7c)" stroke-width="0"/><path d="M798.47,517.9c-26.31.5-52.57,1.2-78.81,2.1h99.33c42.82-.55,85.69-.56,128.59-.02.38,0,.77.01,1.15.02h92.77c-80.97-3.16-162.05-3.63-243.03-2.1Z" fill="url(#uuid-e1f36d10-9f1e-44fc-88bf-a7b0e1fc6810)" stroke-width="0"/></g></svg>