<svg width="64" height="64" viewBox="0 0 64 64" fill="none" xmlns="http://www.w3.org/2000/svg">
<path d="M11.9404 21.0731L11.9613 21.0851L11.9648 21.0308L12.6815 19.7896L12.7872 19.6545L12.7785 19.6216L12.8724 19.507C13.8762 17.7683 15.5038 15.884 17.7544 13.8549C19.0805 12.7503 20.5521 11.7488 22.1691 10.8494C23.1653 10.2841 24.4728 9.71104 26.0914 9.13082C28.183 8.50542 29.7135 8.17401 30.6846 8.13649C32.7151 7.90583 34.7168 7.96755 36.6894 8.32142C39.1156 8.82429 41.0888 9.51491 42.6099 10.3931L42.7052 10.4207L42.6931 10.4417L42.726 10.4328L44.0443 11.1939L44.0535 11.2271L44.0869 11.2185C45.119 11.8144 46.4835 12.8826 48.1807 14.4235C49.3213 15.6057 50.2463 16.71 50.9562 17.7367C51.6555 18.8138 52.3263 20.1169 52.968 21.6477C53.3281 22.6034 53.6811 23.7801 54.0284 25.177C54.4085 27.3226 54.6043 29.0621 54.6151 30.3962C54.5873 30.9598 54.4722 31.417 54.2698 31.7674C53.7273 32.7071 52.9023 33.0722 51.7951 32.863C51.5116 32.7743 51.2788 32.6772 51.0977 32.5726C50.3022 32.1134 49.9468 30.973 50.0311 29.1515C50.0727 28.5959 49.9428 27.5956 49.6423 26.1507C49.1466 24.2375 48.639 22.8132 48.1189 21.8769C47.5975 20.8467 46.9882 19.8874 46.2921 18.9991C45.1607 17.6726 44.378 16.8844 43.9455 16.6347L42.7276 15.6505L42.6824 15.6808L42.5809 15.5658L42.3924 15.457L42.3833 15.4238L42.3503 15.4327L42.2786 15.3633L41.3489 14.7986C37.1908 12.3979 32.6818 11.8605 27.8228 13.1878C26.1401 13.7497 24.9877 14.2155 24.365 14.5851C20.941 16.4232 18.3098 18.9338 16.4717 22.1176L15.9131 23.0851L15.8611 23.2233L15.8402 23.2113L15.849 23.2443L15.8366 23.2656C15.019 24.6819 14.3589 26.5824 13.8571 28.9666C13.6463 30.2664 13.5571 31.6452 13.5898 33.1038C13.5977 34.0248 13.8144 35.4214 14.2401 37.2942L14.5926 38.4235C16.0183 42.8183 18.6497 46.1235 22.4869 48.3389L22.7292 48.4508L22.7169 48.4722L22.7498 48.4633L22.7706 48.4753C25.5058 50.0544 29.3092 50.717 34.1816 50.4635C38.0215 50.1933 40.9012 50.023 42.8207 49.9534C43.5155 49.9432 44.2609 49.9719 45.0593 50.0401L45.0472 50.061C43.1111 51.4489 41.1011 52.626 39.0176 53.5924C37.3423 54.2708 35.7931 54.713 34.3714 54.921C32.6334 55.0954 31.2103 55.1436 30.102 55.0647C28.8335 55.0056 27.3415 54.7709 25.625 54.3595C24.5584 54.08 23.4436 53.7075 22.2801 53.2418L21.0682 52.6824L21.0803 52.6614L21.047 52.6701L19.9678 52.0744L19.3816 51.736L19.3728 51.703L19.3399 51.7119L19.3191 51.6999L19.3103 51.6669L19.2774 51.6758L19.164 51.5824C17.2521 50.4786 15.346 48.7048 13.4453 46.2609C12.4284 44.8324 11.5343 43.2222 10.7639 41.4309C10.346 40.4791 9.91037 39.0586 9.45616 37.1699C9.12448 35.2955 8.97388 33.5909 9.0037 32.0561C9.0306 30.6879 9.23673 29.0583 9.62146 27.1675C9.94794 25.6353 10.6305 23.7762 11.6697 21.5901L11.9404 21.0731ZM17.5369 23.9958L17.579 24.0201L17.549 23.9749L18.2414 22.7756L18.2956 22.7789L18.2659 22.7333C18.8361 21.8097 19.728 20.7162 20.9411 19.4533C22.0826 18.4108 23.1336 17.6053 24.0937 17.0383C24.9798 16.5024 26.1542 15.9835 27.6161 15.481C29.5589 14.9198 30.9426 14.634 31.767 14.6241C33.1547 14.5088 34.5158 14.5841 35.8509 14.8499C36.7963 14.9843 38.0312 15.4075 39.5552 16.1192L39.5761 16.1312L39.564 16.1522L39.5969 16.1433L40.3716 16.5905C44.1528 18.7736 46.6233 22.2942 47.7812 27.1518C48.2169 29.3295 48.3385 30.6339 48.1454 31.0648C48.1113 31.3815 48.0092 31.6868 47.8389 31.9818L47.8147 32.0237C47.3044 32.9074 46.5087 33.2708 45.4271 33.1136L44.7382 32.8567C43.8172 32.325 43.441 31.2849 43.6095 29.7366C43.6404 29.2308 43.5548 28.5738 43.352 27.7648C42.9646 26.4373 42.5094 25.3895 41.986 24.6195C41.6143 23.9748 41.0112 23.2153 40.1765 22.3406C39.4502 21.6972 38.9057 21.2705 38.5431 21.0612L38.5552 21.0402L38.5006 21.0366L38.4081 20.9553L37.2778 20.3027L37.1611 20.2632L37.1731 20.2423L37.0773 20.2148C36.0586 19.6267 34.6242 19.2752 32.774 19.1607C31.9296 19.141 30.9501 19.2581 29.836 19.5122C28.6977 19.8081 27.8471 20.1212 27.2844 20.451C24.865 21.7094 23.084 23.3271 21.9423 25.3045L21.906 25.3674L21.8516 25.3645L21.8816 25.4097L21.8451 25.473L21.7909 25.4696L21.8209 25.5149L21.6873 25.7462L21.6329 25.7433L21.6629 25.7885L21.4442 26.1673L21.3922 26.3055L21.3714 26.2935C20.9452 27.2252 20.6599 27.977 20.5156 28.5489C19.825 31.2913 19.8667 33.7652 20.6405 35.9698C21.0264 37.2028 21.5584 38.295 22.2364 39.2474C23.1904 40.5273 24.2256 41.4899 25.342 42.1344L25.7815 42.3881L25.7902 42.4211L25.8232 42.4122L25.8649 42.4363C27.7068 43.4997 30.0584 43.9223 32.9192 43.7043C40.6131 43.3963 46.6685 43.2368 51.085 43.2246L51.0937 43.2576L51.0814 43.2789C49.4411 45.6045 48.2636 47.1126 47.549 47.8028C40.5273 48.1056 36.6169 48.2884 35.8186 48.3512C32.191 48.5757 29.6418 48.5436 28.1709 48.2553C26.5223 47.9209 24.958 47.3262 23.4791 46.4723C20.2697 44.6194 17.9366 41.8606 16.4802 38.1958C16.2478 37.6316 15.9693 36.5828 15.6457 35.0495C15.2399 32.2717 15.4446 29.6136 16.2598 27.0735C16.5503 26.156 16.9747 25.1301 17.5369 23.9958ZM23.299 26.8734L23.3411 26.8977L23.3111 26.8524L23.6878 26.2L23.7543 26.182L23.7243 26.1367L23.7364 26.1158L23.7909 26.1187L23.7609 26.0734C24.1172 25.4563 24.7453 24.7064 25.6459 23.8234C27.6299 22.1268 29.9608 21.3125 32.6379 21.3807C34.2639 21.4967 35.6843 21.9053 36.898 22.6061L37.0235 22.6785C39.34 24.016 40.8609 26.2313 41.5867 29.3242C41.7709 30.5525 41.6643 31.5104 41.2677 32.1973C40.7736 33.0531 39.9518 33.4295 38.8018 33.3265C38.5661 33.2835 38.3396 33.2086 38.122 33.1021C37.4246 32.6995 37.0195 31.7737 36.907 30.325C36.8337 29.2917 36.5298 28.4803 35.9954 27.8917C35.618 27.4493 35.1992 27.0957 34.7385 26.8297L34.6547 26.7813C33.2591 25.9756 31.6679 25.8797 29.881 26.4937C28.8115 26.9603 27.9282 27.7974 27.232 29.0033L27.1558 29.1834L27.1349 29.1713L27.1435 29.2047L27.119 29.247C26.4795 30.3547 26.3381 31.6947 26.696 33.2659C27.1668 34.6415 28.0168 35.6834 29.2448 36.3923C30.2912 36.9965 32.2502 37.1645 35.1216 36.8962C43.1222 36.5412 49.3896 36.3354 53.9246 36.2804C53.3624 38.3492 52.802 39.8674 52.2431 40.8353C48.4951 41.1399 43.8005 41.3279 38.1594 41.3995C36.2422 41.4332 34.2192 41.5367 32.0909 41.7103C30.0972 41.8121 28.3115 41.4083 26.7348 40.498C24.5442 39.2332 23.0701 37.3069 22.3131 34.7191C22.0196 33.3905 21.9118 32.2715 21.9904 31.3632C22.197 29.7809 22.4218 28.7789 22.6644 28.3586C22.7467 28.0878 22.9578 27.5928 23.299 26.8734Z" fill="black"/>
</svg>
