<svg width="206" height="64" viewBox="0 0 206 64" fill="none" xmlns="http://www.w3.org/2000/svg">
<path d="M11.4171 21.3108L11.438 21.3228L11.4415 21.2685L12.1582 20.0273L12.2639 19.8922L12.2552 19.8593L12.3491 19.7447C13.3529 18.006 14.9805 16.1217 17.2311 14.0926C18.5572 12.988 20.0288 11.9865 21.6458 11.0871C22.642 10.5218 23.9495 9.94878 25.5681 9.36856C27.6597 8.74316 29.1902 8.41175 30.1613 8.37422C32.1918 8.14357 34.1935 8.20529 36.1661 8.55916C38.5923 9.06203 40.5655 9.75265 42.0866 10.6308L42.1819 10.6584L42.1698 10.6794L42.2027 10.6705L43.521 11.4316L43.5302 11.4648L43.5636 11.4562C44.5957 12.0521 45.9602 13.1203 47.6574 14.6612C48.798 15.8434 49.723 16.9477 50.4329 17.9744C51.1323 19.0515 51.803 20.3546 52.4447 21.8854C52.8048 22.8411 53.1578 24.0178 53.5051 25.4147C53.8852 27.5603 54.081 29.2998 54.0918 30.6339C54.064 31.1975 53.9489 31.6547 53.7465 32.0051C53.204 32.9448 52.379 33.3099 51.2718 33.1007C50.9883 33.012 50.7555 32.9149 50.5744 32.8103C49.7789 32.3511 49.4235 31.2107 49.5078 29.3892C49.5494 28.8336 49.4195 27.8333 49.119 26.3884C48.6233 24.4752 48.1157 23.0509 47.5956 22.1146C47.0742 21.0844 46.4649 20.1251 45.7688 19.2368C44.6374 17.9103 43.8547 17.1221 43.4222 16.8724L42.2043 15.8882L42.1591 15.9185L42.0576 15.8035L41.8691 15.6947L41.86 15.6615L41.827 15.6704L41.7553 15.601L40.8256 15.0363C36.6675 12.6356 32.1585 12.0982 27.2995 13.4255C25.6168 13.9874 24.4644 14.4532 23.8417 14.8228C20.4177 16.6609 17.7865 19.1715 15.9484 22.3553L15.3898 23.3228L15.3378 23.461L15.3169 23.449L15.3257 23.482L15.3133 23.5033C14.4957 24.9196 13.8356 26.8201 13.3338 29.2043C13.123 30.5041 13.0338 31.8829 13.0665 33.3415C13.0744 34.2625 13.2911 35.6591 13.7168 37.5319L14.0693 38.6612C15.495 43.056 18.1264 46.3612 21.9636 48.5766L22.2059 48.6885L22.1936 48.7099L22.2265 48.701L22.2473 48.713C24.9825 50.2921 28.7859 50.9547 33.6583 50.7012C37.4982 50.431 40.3779 50.2607 42.2974 50.1911C42.9922 50.1808 43.7376 50.2096 44.536 50.2778L44.5239 50.2987C42.5878 51.6866 40.5778 52.8637 38.4943 53.8301C36.819 54.5085 35.2698 54.9507 33.8481 55.1587C32.1101 55.3331 30.687 55.3813 29.5787 55.3024C28.3102 55.2433 26.8182 55.0086 25.1017 54.5972C24.0351 54.3177 22.9203 53.9452 21.7568 53.4795L20.5449 52.9201L20.557 52.8991L20.5237 52.9078L19.4445 52.3121L18.8583 51.9737L18.8495 51.9407L18.8166 51.9496L18.7958 51.9376L18.787 51.9046L18.7541 51.9135L18.6407 51.8201C16.7288 50.7163 14.8227 48.9425 12.922 46.4986C11.9051 45.0701 11.011 43.4599 10.2406 41.6686C9.82269 40.7168 9.38706 39.2963 8.93285 37.4076C8.60118 35.5332 8.45057 33.8286 8.48039 32.2938C8.50729 30.9256 8.71342 29.296 9.09815 27.4052C9.42463 25.873 10.1072 24.0139 11.1464 21.8278L11.4171 21.3108ZM17.0136 24.2335L17.0557 24.2578L17.0257 24.2126L17.7181 23.0133L17.7723 23.0166L17.7426 22.971C18.3128 22.0474 19.2047 20.9539 20.4178 19.691C21.5593 18.6485 22.6103 17.843 23.5704 17.276C24.4565 16.7401 25.6309 16.2212 27.0928 15.7187C29.0356 15.1575 30.4193 14.8717 31.2437 14.8618C32.6314 14.7465 33.9925 14.8218 35.3276 15.0876C36.273 15.222 37.5079 15.6452 39.0319 16.3569L39.0528 16.3689L39.0407 16.3899L39.0736 16.381L39.8483 16.8282C43.6295 19.0113 46.1 22.5319 47.2579 27.3895C47.6936 29.5672 47.8152 30.8716 47.6221 31.3025C47.588 31.6192 47.4859 31.9245 47.3156 32.2195L47.2914 32.2614C46.7811 33.1451 45.9854 33.5085 44.9038 33.3513L44.2149 33.0944C43.2939 32.5627 42.9177 31.5226 43.0862 29.9743C43.1171 29.4685 43.0315 28.8115 42.8287 28.0025C42.4413 26.675 41.9861 25.6272 41.4627 24.8572C41.091 24.2125 40.4879 23.453 39.6532 22.5783C38.9269 21.9349 38.3824 21.5082 38.0198 21.2989L38.0319 21.2779L37.9773 21.2743L37.8848 21.193L36.7545 20.5404L36.6378 20.5009L36.6499 20.48L36.554 20.4525C35.5353 19.8644 34.1009 19.5129 32.2507 19.3984C31.4063 19.3787 30.4268 19.4958 29.3127 19.7499C28.1744 20.0458 27.3238 20.3589 26.7611 20.6887C24.3417 21.9471 22.5607 23.5648 21.419 25.5422L21.3827 25.6051L21.3283 25.6022L21.3583 25.6474L21.3218 25.7107L21.2676 25.7073L21.2976 25.7526L21.164 25.9839L21.1096 25.981L21.1396 26.0262L20.9209 26.405L20.8689 26.5432L20.8481 26.5312C20.4219 27.4629 20.1366 28.2147 19.9923 28.7866C19.3017 31.529 19.3434 34.0029 20.1172 36.2075C20.5031 37.4405 21.0351 38.5327 21.7131 39.4851C22.6671 40.765 23.7023 41.7276 24.8187 42.3721L25.2582 42.6258L25.2669 42.6588L25.2999 42.6499L25.3416 42.674C27.1835 43.7374 29.5351 44.16 32.3959 43.942C40.0898 43.634 46.1452 43.4745 50.5617 43.4623L50.5704 43.4953L50.5581 43.5166C48.9178 45.8422 47.7403 47.3503 47.0257 48.0405C40.004 48.3433 36.0936 48.5261 35.2953 48.5889C31.6677 48.8134 29.1185 48.7813 27.6476 48.493C25.999 48.1586 24.4347 47.5639 22.9558 46.71C19.7464 44.8571 17.4133 42.0983 15.9569 38.4335C15.7245 37.8693 15.446 36.8205 15.1224 35.2872C14.7166 32.5094 14.9213 29.8513 15.7365 27.3112C16.027 26.3937 16.4514 25.3678 17.0136 24.2335ZM22.7757 27.1111L22.8178 27.1354L22.7878 27.0901L23.1645 26.4377L23.231 26.4197L23.201 26.3744L23.2131 26.3535L23.2676 26.3564L23.2376 26.3111C23.5939 25.694 24.222 24.9441 25.1226 24.0611C27.1066 22.3645 29.4375 21.5502 32.1146 21.6184C33.7406 21.7344 35.161 22.143 36.3747 22.8438L36.5002 22.9162C38.8167 24.2537 40.3376 26.469 41.0634 29.5619C41.2476 30.7902 41.141 31.7481 40.7444 32.435C40.2503 33.2908 39.4285 33.6672 38.2785 33.5642C38.0428 33.5212 37.8163 33.4463 37.5987 33.3398C36.9013 32.9372 36.4962 32.0114 36.3837 30.5627C36.3104 29.5294 36.0065 28.718 35.4721 28.1294C35.0947 27.687 34.6759 27.3334 34.2152 27.0674L34.1314 27.019C32.7358 26.2133 31.1446 26.1174 29.3577 26.7314C28.2882 27.198 27.4049 28.0351 26.7087 29.241L26.6325 29.4211L26.6116 29.409L26.6202 29.4424L26.5957 29.4847C25.9562 30.5924 25.8148 31.9324 26.1727 33.5036C26.6435 34.8792 27.4935 35.9211 28.7215 36.63C29.7679 37.2342 31.7269 37.4022 34.5983 37.1339C42.5989 36.7789 48.8663 36.5731 53.4013 36.5181C52.8391 38.5869 52.2787 40.1051 51.7198 41.073C47.9718 41.3776 43.2772 41.5656 37.6361 41.6372C35.7189 41.6709 33.6959 41.7744 31.5676 41.948C29.5739 42.0498 27.7882 41.646 26.2115 40.7357C24.0209 39.4709 22.5468 37.5446 21.7898 34.9568C21.4963 33.6282 21.3885 32.5092 21.4671 31.6009C21.6737 30.0186 21.8985 29.0166 22.1411 28.5963C22.2234 28.3255 22.4345 27.8305 22.7757 27.1111Z" fill="white"/>
<path d="M64.408 43V21.624H80.856V26.072H69.464V29.784H76.408V34.232H69.464V38.552H80.856V43H64.408ZM87.8025 43.384C86.7998 43.384 85.8825 43.192 85.0505 42.808C84.2185 42.424 83.5572 41.8907 83.0665 41.208C82.5758 40.504 82.3305 39.672 82.3305 38.712C82.3305 37.4107 82.7785 36.376 83.6745 35.608C84.5918 34.84 85.8398 34.264 87.4185 33.88C88.9972 33.496 90.8105 33.2293 92.8585 33.08C92.8585 31.9493 92.6772 31.1493 92.3145 30.68C91.9518 30.2107 91.2478 29.976 90.2025 29.976C89.5412 29.976 88.9545 30.136 88.4425 30.456C87.9518 30.7547 87.6212 31.224 87.4505 31.864L83.3545 30.392C83.8878 29.3253 84.7732 28.44 86.0105 27.736C87.2692 27.032 88.8052 26.68 90.6185 26.68C92.8798 26.68 94.6185 27.1813 95.8345 28.184C97.0505 29.1867 97.6585 30.8933 97.6585 33.304V36.792C97.6585 37.4747 97.6798 38.2107 97.7225 39C97.7652 39.7893 97.8292 40.536 97.9145 41.24C97.9998 41.944 98.0958 42.5307 98.2025 43H93.6905L93.1145 41.08C92.5172 41.912 91.7598 42.5093 90.8425 42.872C89.9465 43.2133 88.9332 43.384 87.8025 43.384ZM89.5945 40.056C90.5545 40.056 91.3545 39.8 91.9945 39.288C92.6345 38.776 92.9545 37.7947 92.9545 36.344V35.96C91.2692 36.1093 89.9145 36.344 88.8905 36.664C87.8665 36.9627 87.3545 37.528 87.3545 38.36C87.3545 38.872 87.5678 39.288 87.9945 39.608C88.4212 39.9067 88.9545 40.056 89.5945 40.056ZM107.698 43.384C105.842 43.384 104.231 43.0427 102.866 42.36C101.522 41.6773 100.541 40.6747 99.922 39.352L104.05 37.848C104.285 38.5093 104.733 39.0107 105.394 39.352C106.077 39.672 106.877 39.832 107.794 39.832C108.583 39.832 109.277 39.7147 109.874 39.48C110.493 39.224 110.802 38.8507 110.802 38.36C110.802 38.0187 110.621 37.7307 110.258 37.496C109.895 37.2613 109.255 37.0693 108.338 36.92L105.49 36.44C103.954 36.184 102.706 35.6613 101.746 34.872C100.786 34.0827 100.306 33.0267 100.306 31.704C100.306 30.5947 100.637 29.6667 101.298 28.92C101.981 28.1733 102.877 27.6187 103.986 27.256C105.095 26.872 106.301 26.68 107.602 26.68C109.117 26.68 110.514 26.9573 111.794 27.512C113.095 28.0453 114.045 28.9413 114.642 30.2L110.546 31.704C110.397 31.128 110.045 30.744 109.49 30.552C108.935 30.3387 108.295 30.232 107.57 30.232C105.821 30.232 104.946 30.6587 104.946 31.512C104.946 31.832 105.095 32.0987 105.394 32.312C105.693 32.504 106.194 32.664 106.898 32.792L109.842 33.336C111.762 33.6773 113.181 34.1787 114.098 34.84C115.015 35.5013 115.474 36.4933 115.474 37.816C115.474 39.0533 115.122 40.088 114.418 40.92C113.714 41.752 112.775 42.3707 111.602 42.776C110.429 43.1813 109.127 43.384 107.698 43.384ZM118.424 48.152V44.632H119.384C120.109 44.632 120.653 44.6 121.016 44.536C121.378 44.472 121.656 44.312 121.848 44.056C122.061 43.8213 122.253 43.4373 122.424 42.904L116.344 27.128H121.56L124.664 37.048L127.704 27.128H132.92L126.84 43C126.328 44.344 125.805 45.3893 125.272 46.136C124.76 46.8827 124.098 47.4053 123.288 47.704C122.477 48.0027 121.378 48.152 119.992 48.152H118.424ZM153.204 43.384C150.879 43.384 148.916 42.9147 147.316 41.976C145.738 41.016 144.618 39.6827 143.956 37.976L148.564 36.312C148.863 37.336 149.418 38.0933 150.228 38.584C151.06 39.0747 152.063 39.32 153.236 39.32C153.855 39.32 154.452 39.256 155.028 39.128C155.604 38.9787 156.084 38.744 156.468 38.424C156.852 38.0827 157.044 37.6347 157.044 37.08C157.044 36.3333 156.682 35.7573 155.956 35.352C155.231 34.9253 154.292 34.6053 153.14 34.392L150.548 33.88C149.396 33.6453 148.319 33.2933 147.316 32.824C146.335 32.3333 145.546 31.6933 144.948 30.904C144.351 30.0933 144.052 29.08 144.052 27.864C144.052 26.712 144.319 25.72 144.852 24.888C145.386 24.056 146.09 23.3733 146.964 22.84C147.86 22.3067 148.842 21.912 149.908 21.656C150.975 21.3787 152.042 21.24 153.108 21.24C154.26 21.24 155.37 21.4 156.436 21.72C157.524 22.04 158.495 22.5413 159.348 23.224C160.202 23.8853 160.852 24.7707 161.3 25.88L156.724 27.544C156.447 26.8187 155.946 26.264 155.22 25.88C154.516 25.496 153.663 25.304 152.66 25.304C151.679 25.304 150.858 25.4853 150.196 25.848C149.556 26.1893 149.236 26.6907 149.236 27.352C149.236 27.8853 149.46 28.344 149.908 28.728C150.356 29.112 150.943 29.3787 151.668 29.528L154.548 30.104C155.423 30.2747 156.308 30.4987 157.204 30.776C158.1 31.032 158.922 31.384 159.668 31.832C160.436 32.2587 161.055 32.8347 161.524 33.56C161.994 34.2853 162.228 35.2027 162.228 36.312C162.228 37.4427 161.962 38.456 161.428 39.352C160.916 40.2267 160.223 40.9627 159.348 41.56C158.495 42.1573 157.535 42.616 156.468 42.936C155.402 43.2347 154.314 43.384 153.204 43.384ZM170.073 43.384C168.665 43.384 167.555 43.128 166.745 42.616C165.955 42.0827 165.39 41.3147 165.049 40.312C164.729 39.3093 164.569 38.0933 164.569 36.664V27.128H169.433V35.992C169.433 37.4427 169.646 38.4133 170.073 38.904C170.521 39.3733 171.139 39.608 171.929 39.608C172.889 39.608 173.582 39.288 174.009 38.648C174.457 38.008 174.681 36.952 174.681 35.48V27.128H179.577V43H175.353L174.681 40.76C174.211 41.5493 173.625 42.1893 172.921 42.68C172.238 43.1493 171.289 43.384 170.073 43.384ZM182.819 43V27.128H186.659L187.523 30.04C188.013 28.76 188.685 27.864 189.539 27.352C190.392 26.84 191.427 26.616 192.643 26.68V31.544C192.387 31.5013 192.163 31.48 191.971 31.48C191.779 31.4587 191.565 31.448 191.331 31.448C190.157 31.448 189.251 31.7253 188.611 32.28C187.992 32.8347 187.683 33.7413 187.683 35V43H182.819ZM196.503 43V30.84H193.879V27.128H196.503V24.536C196.503 23.2773 196.716 22.296 197.143 21.592C197.569 20.888 198.231 20.3973 199.127 20.12C200.023 19.8427 201.185 19.704 202.615 19.704H204.823V23.544H203.479C202.625 23.544 202.06 23.6293 201.783 23.8C201.505 23.9707 201.367 24.3653 201.367 24.984V27.128H204.823V30.84H201.367V43H196.503Z" fill="white"/>
</svg>
